<svg version="1.1" xmlns="http://www.w3.org/2000/svg" xmlns:xlink="http://www.w3.org/1999/xlink" width="132.06508" height="276.29726" viewBox="0,0,132.06508,276.29726"><g transform="translate(-173.96746,-41.88085)"><g data-paper-data="{&quot;isPaintingLayer&quot;:true}" fill-rule="nonzero" stroke-linejoin="miter" stroke-miterlimit="10" stroke-dasharray="" stroke-dashoffset="0" style="mix-blend-mode: normal"><g stroke="#2d0039" stroke-width="3.5" stroke-linecap="round"><path d="M264.59854,173.63182c0,0 6.60259,99.03398 7.87567,123.25697c0.54205,10.31363 4.52934,19.48807 4.52934,19.48807c-8.41771,-0.15938 -79.7391,-1.1486 -79.7391,-1.1486c0,0 3.53045,-8.57125 4.17139,-20.12855c1.50304,-27.10239 9.18835,-123.00052 9.18835,-123.00052" data-paper-data="{&quot;index&quot;:null}" fill="#45214f"/><path d="M202.84739,287.08369h67.33333" fill="none"/></g><path d="M178.78925,84.27816c2.03531,-20.50987 0.81279,-40.34611 7.84116,-40.6473c9.14526,-0.39191 18.56022,14.35444 32.02746,21.7323c5.58734,3.06095 14.76469,3.01289 20.31536,3.01289c8.32863,0 17.53074,-0.77788 24.00652,-4.66829c14.15364,-8.50298 22.48177,-23.47671 31.00664,-18.42237c3.19143,1.89218 5.14949,15.80037 7.19413,35.64136c1.06015,10.28758 8.86977,37.73103 -5.27543,54.80742c-5.94551,7.17755 -30.83431,18.3665 -57.16471,17.26997c-11.03194,-0.45943 -43.76149,-3.77493 -54.64298,-16.88635c-14.56772,-17.55306 -5.82744,-46.60668 -5.30814,-51.83963z" fill="#2d0039" stroke="#2d0039" stroke-width="3.5" stroke-linecap="butt"/><g><g data-paper-data="{&quot;index&quot;:null}" fill="#cfcfcf" stroke="#ababab"><path d="M191.10408,231.23063c0.06778,-4.23526 4.619,-7.6242 10.16543,-7.56935c5.54644,0.05484 9.98777,3.5327 9.91999,7.76796c-0.03644,2.27678 -0.41004,5.34934 -2.49587,6.73343c-1.79425,1.19061 -14.81863,1.43369 -16.56717,-0.71998c-0.97342,-1.19896 -1.04661,-4.69745 -1.02236,-6.21206z" data-paper-data="{&quot;index&quot;:null}" stroke-width="3" stroke-linecap="butt"/><path d="M196.82358,235.20439v3.12113" stroke-width="1.5" stroke-linecap="round"/><path d="M200.95304,238.58562v-3.12113" stroke-width="1.5" stroke-linecap="round"/><path d="M205.3406,238.58562v-3.12113" stroke-width="1.5" stroke-linecap="round"/></g><path d="M211.96674,157.65508c0,0 0.51641,-0.25032 0.29859,-0.25057c-0.21783,-0.00027 -0.21804,0.25005 -0.21804,0.25005c-0.00035,0.36169 -0.51026,50.84684 -0.17955,71.02191c0.08324,5.07774 1.46859,7.45495 1.46842,7.54252l-24.39442,-0.2798c0,0 1.31067,-7.93606 1.55817,-10.7366c1.08245,-12.24816 3.81127,-47.40759 5.46518,-71.6072c0.99657,-14.58154 13.80433,-12.30606 13.80433,-12.30606l1.03008,-0.03373" data-paper-data="{&quot;index&quot;:null}" fill="#45214f" stroke="#2d0039" stroke-width="3.5" stroke-linecap="round"/><path d="M192.63651,202.51484h19" fill="none" stroke="#2d0039" stroke-width="3.5" stroke-linecap="round"/><path d="M211.77937,185.80057h-18.57143" fill="none" stroke="#2d0039" stroke-width="3.5" stroke-linecap="round"/><path d="M210.92222,221.51486h-20.28571" fill="none" stroke="#2d0039" stroke-width="3.5" stroke-linecap="round"/></g><g><g data-paper-data="{&quot;index&quot;:null}" fill="#cfcfcf" stroke="#ababab"><path d="M265.8001,231.9825c0.06779,-4.34305 4.619,-7.81825 10.16544,-7.762c5.54643,0.05623 9.98777,3.6226 9.91998,7.96565c-0.03645,2.33473 -0.41004,5.48548 -2.49587,6.9048c-1.79425,1.2209 -14.81863,1.47018 -16.56717,-0.7383c-0.97342,-1.22947 -1.04662,-4.817 -1.02237,-6.37017z" data-paper-data="{&quot;index&quot;:null}" stroke-width="3" stroke-linecap="butt"/><path d="M271.5196,239.25794v-3.20056" stroke-width="1.5" stroke-linecap="round"/><path d="M275.64906,239.52466v-3.20056" stroke-width="1.5" stroke-linecap="round"/><path d="M280.03661,239.52466v-3.20056" stroke-width="1.5" stroke-linecap="round"/></g><path d="M265.28905,141.96926l1.03008,0.03345c0,0 12.42406,-0.16279 13.65546,10.75092c0.00255,0.02262 0.0232,0.22313 0.05749,0.5847c0.552,5.81934 4.49201,59.35197 6.19558,77.98871c0.37479,4.10009 1.43433,5.2424 1.43433,5.2424l-24.74295,0.61076c-0.00011,-0.05534 0.49909,-5.76547 0.49777,-7.83442c-0.00898,-14.0744 0.6248,-70.72541 0.62444,-71.11678c0,0 -0.00024,-0.24819 -0.21805,-0.24793c-0.21783,0.00026 -0.21761,0.24845 -0.21761,0.24845" data-paper-data="{&quot;index&quot;:null}" fill="#45214f" stroke="#2d0039" stroke-width="3.5" stroke-linecap="round"/><path d="M264.49364,185.65773h18.71429" fill="none" stroke="#2d0039" stroke-width="3.5" stroke-linecap="round"/><path d="M282.77937,201.94344h-18.42857" fill="none" stroke="#2d0039" stroke-width="3.5" stroke-linecap="round"/><path d="M264.63651,220.65773h20.14286" fill="none" stroke="#2d0039" stroke-width="3.5" stroke-linecap="round"/></g><path d="" data-paper-data="{&quot;index&quot;:null}" fill="#ffc259" stroke="#c37c00" stroke-width="3.5" stroke-linecap="butt"/><path d="" data-paper-data="{&quot;index&quot;:null}" fill="#ffc259" stroke="#c37c00" stroke-width="3.5" stroke-linecap="butt"/><path d="" data-paper-data="{&quot;index&quot;:null}" fill="#ffc259" stroke="#c37c00" stroke-width="3.5" stroke-linecap="butt"/><path d="" data-paper-data="{&quot;index&quot;:null}" fill="#ffc259" stroke="#c37c00" stroke-width="3.5" stroke-linecap="butt"/><path d="M208.99813,176.43494v-33.82513h57.07161v33.82513z" data-paper-data="{&quot;index&quot;:null}" fill="#45214f" stroke="none" stroke-width="0" stroke-linecap="butt"/><path d="M197.9704,146.2654c1.41968,-1.11402 7.33197,-1.52452 7.33197,-1.52452l66.45811,0.92809c0,0 5.86843,0.84091 7.18578,1.96225c1.37963,1.17434 -26.81388,7.81543 -41.08681,7.81543c-13.89225,0 -41.69733,-7.76227 -39.88905,-9.18124z" fill="#370047" stroke="#370047" stroke-width="3.5" stroke-linecap="round"/><g data-paper-data="{&quot;index&quot;:null}" fill="#cfcfcf" stroke="#191919" stroke-width="3.5" stroke-linecap="round"><path d="M238.91598,75.78016c7.83265,-0.14612 18.49903,-0.80572 25.06841,-4.41472c6.13626,-3.37109 9.07863,-7.64185 11.31878,-9.34155c3.6516,-2.77056 12.8448,-13.62213 15.08087,-11.90925c5.16333,3.95519 3.65368,20.34368 5.14078,34.35284c0.90431,8.5191 3.67839,28.5356 2.02951,36.3309c-0.67013,3.16805 -5.19058,12.66572 -14.59166,17.67618c-12.40606,6.61204 -32.1158,9.73342 -43.59681,9.82057"/><path d="M241.11313,148.20584c-11.48102,-0.08719 -31.93789,-3.11926 -44.34395,-9.73128c-9.40106,-5.01049 -13.9215,-14.50815 -14.59164,-17.67618c-1.64892,-7.79529 1.12519,-27.81182 2.02948,-36.3309c1.48711,-14.00916 -0.02255,-30.39764 5.14079,-34.35283c2.23606,-1.71289 11.42929,9.13868 15.08087,11.90927c2.24015,1.69969 5.18252,5.97045 11.3188,9.34154c6.56937,3.60901 17.23573,4.2686 25.06839,4.41472" data-paper-data="{&quot;index&quot;:null}"/></g><path d="M296.89161,119.28883c0,13.60043 -26.65645,28.92524 -56.825,28.92524c-30.16855,0 -56.225,-15.3248 -56.225,-28.92523c0,-13.60043 25.35645,-22.5081 55.525,-22.5081c30.16855,0 57.525,8.90767 57.525,22.50811z" data-paper-data="{&quot;index&quot;:null}" fill="#ffffff" stroke="none" stroke-width="0" stroke-linecap="butt"/><g data-paper-data="{&quot;index&quot;:null}" fill="none" stroke="#ababab" stroke-width="4" stroke-linecap="round"><path d="M238.91598,75.70996c7.83265,-0.14612 18.49903,-0.80569 25.06841,-4.41471c6.13626,-3.37107 9.07863,-7.64187 11.31878,-9.34152c3.6516,-2.77056 12.8448,-13.62216 15.08087,-11.90927c5.16333,3.95517 3.65368,20.34368 5.14076,34.35284c0.90431,8.5191 3.67842,28.53562 2.02952,36.33092c-0.67013,3.16805 -5.19058,12.66571 -14.59167,17.67618c-12.40606,6.61204 -32.11581,9.73341 -43.59683,9.82057"/><path d="M241.11313,148.13565c-11.48102,-0.08719 -31.93786,-3.11926 -44.34393,-9.73128c-9.40106,-5.01049 -13.92149,-14.50813 -14.59167,-17.67616c-1.64892,-7.79529 1.1252,-27.81183 2.02949,-36.33091c1.48711,-14.00916 -0.02256,-30.39765 5.14079,-34.35284c2.23607,-1.71289 11.42929,9.13869 15.08085,11.90928c2.24015,1.69969 5.18252,5.97044 11.3188,9.34152c6.56937,3.60901 17.23575,4.26859 25.06838,4.41471" data-paper-data="{&quot;index&quot;:null}"/></g><path d="M190.65686,77.80875l0.34353,-21.61146l18.55,17.15196" data-paper-data="{&quot;index&quot;:null}" fill="#ffffff" stroke="#c8c8c8" stroke-width="1.5" stroke-linecap="round"/><path d="M270.00969,74.10326l18.55,-17.15195l0.34352,21.61148" data-paper-data="{&quot;index&quot;:null}" fill="#ffffff" stroke="#c8c8c8" stroke-width="1.5" stroke-linecap="round"/><path d="M240.36284,113.87973c0,-0.42628 0.34603,-0.77183 0.77292,-0.77183c0.42687,0 0.77293,0.34555 0.77293,0.77183c0,0.42628 -0.34604,0.77184 -0.77293,0.77184c-0.42687,0 -0.77292,-0.34555 -0.77292,-0.77184z" data-paper-data="{&quot;index&quot;:null}" fill="#000000" stroke="none" stroke-width="0.5" stroke-linecap="butt"/><path d="M231.04847,102.29446c0,6.74402 -1.32239,12.21113 -2.95363,12.21113c-1.63126,0 -2.95364,-5.46711 -2.95364,-12.21113c0,-6.74402 1.3224,-12.21113 2.95364,-12.21113c1.63126,0 2.95363,5.46711 2.95363,12.21113z" data-paper-data="{&quot;index&quot;:null}" fill="#000000" stroke="none" stroke-width="0" stroke-linecap="butt"/><path d="M254.0966,102.59048c0,6.74401 -1.32237,12.21113 -2.95363,12.21113c-1.63126,0 -2.95362,-5.46712 -2.95362,-12.21113c0,-6.74402 1.32238,-12.21113 2.95362,-12.21113c1.63126,0 2.95363,5.4671 2.95363,12.21113z" data-paper-data="{&quot;index&quot;:null}" fill="#000000" stroke="none" stroke-width="0" stroke-linecap="butt"/><path d="M217.74588,110.64649c0,0.32435 -0.41117,0.32435 -0.41117,0.32435l-0.19891,-0.01665c-0.04923,0.01256 -1.05382,0.14946 -1.06591,0.20564c-0.10189,0.47346 0.37495,2.58811 0.70555,2.5397c0.53231,-0.14192 2.56376,-0.08318 2.69276,-0.38845c0.54259,-1.28403 -1.3058,-3.0372 -1.76181,-4.17001c-0.17219,-0.42776 -0.51706,-1.01154 -0.45331,-1.49204c-1.07374,0.77939 -2.32652,1.55324 -3.51033,2.24684c-1.7416,0.47182 -0.69986,1.59387 -0.14937,2.69137c0.89187,1.77814 1.24099,0.99899 1.99332,2.757c0,0 0.13002,0.30769 -0.26005,0.41026c-0.39007,0.10257 -0.52009,-0.20513 -0.52009,-0.20513c-0.77696,-1.86557 -1.13987,-1.48188 -2.26706,-3.30372c-0.73393,-1.18622 -1.04631,-2.45226 0.82162,-2.92437c1.21031,-0.72485 2.68371,-1.57071 3.68287,-2.40708l0.32894,-0.25947c0.07441,-0.05869 0.1772,-0.095 0.29074,-0.095c0.22708,0 0.41118,0.14522 0.41118,0.32435v0.43892c0.5798,1.5456 1.39681,2.96957 1.95723,4.5302c0.12928,0.36001 0.46285,1.50196 0.10326,1.83718c-0.18793,0.1752 -2.7294,0.51946 -3.22815,0.64947c-1.15897,-0.0526 -2.18565,-2.47037 -1.59702,-3.42826c0.35978,-0.58547 0.94417,-0.40301 1.5656,-0.5728l0.45897,-0.01664c0,0 0.41117,0 0.41117,0.32435z" fill="#707070" stroke="none" stroke-width="0.5" stroke-linecap="butt"/><path d="M262.12741,110.40786l0.45897,0.01664c0.62143,0.16979 1.20582,-0.01267 1.5656,0.5728c0.58863,0.95789 -0.43804,3.37565 -1.59702,3.42826c-0.49876,-0.13 -3.04022,-0.47427 -3.22815,-0.64947c-0.35958,-0.33522 -0.02601,-1.47718 0.10326,-1.83718c0.56041,-1.56063 1.37742,-2.9846 1.95723,-4.5302v-0.43892c0,-0.17913 0.1841,-0.32435 0.41118,-0.32435c0.11354,0 0.21634,0.03631 0.29075,0.095l0.32894,0.25947c0.99917,0.83637 2.47257,1.68223 3.68287,2.40708c1.86793,0.4721 1.55554,1.73814 0.82162,2.92436c-1.12719,1.82185 -1.49009,1.43816 -2.26706,3.30373c0,0 -0.13003,0.3077 -0.5201,0.20513c-0.39007,-0.10257 -0.26006,-0.41026 -0.26006,-0.41026c0.75233,-1.75801 1.10145,-0.97886 1.99332,-2.757c0.55048,-1.0975 1.59222,-2.21955 -0.14938,-2.69137c-1.18381,-0.6936 -2.43659,-1.46744 -3.51033,-2.24684c0.06375,0.4805 -0.28111,1.06427 -0.45331,1.49204c-0.45601,1.13281 -2.3044,2.88598 -1.76182,4.17001c0.12899,0.30527 2.16046,0.24653 2.69276,0.38845c0.33059,0.04841 0.80743,-2.06624 0.70554,-2.5397c-0.01209,-0.05617 -1.01668,-0.19308 -1.0659,-0.20564l-0.19891,0.01665c0,0 -0.41118,0 -0.41118,-0.32435c0,-0.32435 0.41118,-0.32435 0.41118,-0.32435z" data-paper-data="{&quot;index&quot;:null}" fill="#707070" stroke="none" stroke-width="0.5" stroke-linecap="butt"/><g fill="#707070" stroke="none" stroke-width="0.5" stroke-linecap="butt"><path d="M194.38314,110.95358c0,-0.95165 0.95165,-0.95165 0.95165,-0.95165h0.76132c3.41468,0 9.54553,-0.9193 10.63997,3.2393c0,0 0.18663,0.93317 -0.74654,1.1198c-0.93317,0.18663 -1.1198,-0.74653 -1.1198,-0.74653c-0.06698,-1.1275 -1.62209,-1.41717 -2.60743,-1.52588c-2.0587,-0.22712 -4.09807,-0.18339 -6.16621,-0.18339h-0.76132c0,0 -0.95165,0 -0.95165,-0.95165z"/><path d="M192.28952,119.51841c0,-0.72659 0.55477,-0.89843 0.81716,-0.93906c3.03787,-2.11704 7.39057,-2.40864 10.97958,-1.70707c0,0 0.93317,0.18663 0.74654,1.1198c-0.18663,0.93317 -1.1198,0.74653 -1.1198,0.74653c-3.12199,-0.64157 -7.13565,-0.39566 -9.7105,1.54112l-0.76132,0.19033c0,0 -0.95165,0 -0.95165,-0.95165z"/><path d="M195.67052,128.93442c-0.85118,-0.42559 -0.42559,-1.27677 -0.42559,-1.27677l0.47052,-0.90671c1.67505,-2.20081 4.99323,-4.33493 7.80351,-4.37758c0,0 0.95165,0 0.95165,0.95165c0,0.95165 -0.95165,0.95165 -0.95165,0.95165c-2.14289,-0.04768 -5.05027,1.94393 -6.28087,3.61626l-0.2908,0.61592c0,0 -0.42559,0.85118 -1.27677,0.42559z"/></g><g data-paper-data="{&quot;index&quot;:null}" fill="#707070" stroke="none" stroke-width="0.5" stroke-linecap="butt"><path d="M287.20604,111.65523h-0.76132c-2.06814,0 -4.10751,-0.04373 -6.16621,0.18339c-0.98534,0.10871 -2.54046,0.39838 -2.60743,1.52587c0,0 -0.18663,0.93317 -1.1198,0.74654c-0.93317,-0.18663 -0.74653,-1.1198 -0.74653,-1.1198c1.09444,-4.1586 7.22529,-3.2393 10.63997,-3.2393h0.76132c0,0 0.95164,0 0.95164,0.95165c0,0.95165 -0.95164,0.95164 -0.95164,0.95164z"/><path d="M289.29966,120.22006l-0.76131,-0.19033c-2.57485,-1.93677 -6.5885,-2.18269 -9.7105,-1.54112c0,0 -0.93317,0.18663 -1.1198,-0.74653c-0.18663,-0.93317 0.74653,-1.1198 0.74653,-1.1198c3.589,-0.70157 7.94171,-0.40997 10.97958,1.70707c0.26239,0.04063 0.81716,0.21247 0.81716,0.93906c0,0.95165 -0.95165,0.95165 -0.95165,0.95165z"/><path d="M285.59354,128.25882l-0.2908,-0.61592c-1.2306,-1.67233 -4.13799,-3.66394 -6.28087,-3.61626c0,0 -0.95165,0 -0.95165,-0.95165c0,-0.95165 0.95165,-0.95164 0.95165,-0.95164c2.81027,0.04264 6.12846,2.17677 7.80351,4.37758l0.47051,0.90671c0,0 0.42559,0.85119 -0.42559,1.27678c-0.85118,0.42559 -1.27677,-0.4256 -1.27677,-0.4256z"/></g><g stroke-width="0"><path d="M218.33847,226.61961v-39.80332h39.80332v39.80332z" fill="#ff0000" stroke="none" stroke-linecap="butt"/><path d="M222.60787,205.96115c0,-8.67393 7.0316,-15.70553 15.70553,-15.70553c8.67393,0 15.70553,7.0316 15.70553,15.70553c0,8.67393 -7.0316,15.70553 -15.70553,15.70553c-8.67393,0 -15.70553,-7.0316 -15.70553,-15.70553z" fill="#ffffff" stroke="none" stroke-linecap="butt"/><g data-paper-data="{&quot;index&quot;:null}" fill="#000000" stroke="#000000" stroke-linecap="round"><path d="M238.38532,203.36035c1.35041,-0.02519 3.18938,-0.13891 4.32199,-0.76113c1.05794,-0.5812 1.56522,-1.31752 1.95145,-1.61055c0.62956,-0.47767 2.21455,-2.34857 2.60006,-2.05325c0.8902,0.6819 0.62992,3.50741 0.88631,5.9227c0.15591,1.46876 0.63419,4.91976 0.3499,6.26373c-0.11554,0.5462 -0.8949,2.18367 -2.51572,3.04751c-2.1389,1.13997 -5.53702,1.67812 -7.51644,1.69314"/><path d="M238.76412,215.84711c-1.97942,-0.01503 -5.50634,-0.53779 -7.64524,-1.67775c-1.62082,-0.86385 -2.40017,-2.50132 -2.51572,-3.04751c-0.28429,-1.34397 0.194,-4.79498 0.3499,-6.26373c0.25639,-2.41529 -0.00389,-5.24079 0.88631,-5.9227c0.38552,-0.29532 1.9705,1.57558 2.60006,2.05325c0.38622,0.29304 0.89351,1.02935 1.95145,1.61055c1.13261,0.62222 2.97158,0.73594 4.32198,0.76113" data-paper-data="{&quot;index&quot;:null}"/></g></g></g></g></svg>