<svg version="1.1" xmlns="http://www.w3.org/2000/svg" xmlns:xlink="http://www.w3.org/1999/xlink" width="319.52068" height="155.1822" viewBox="0,0,319.52068,155.1822"><g transform="translate(-79.52769,-91.09404)"><g data-paper-data="{&quot;isPaintingLayer&quot;:true}" fill-rule="nonzero" stroke-linejoin="miter" stroke-miterlimit="10" stroke-dasharray="" stroke-dashoffset="0" style="mix-blend-mode: normal"><path d="M82.02769,224.95268c0,0 0,-88.67037 0,-102.45268c0,-3.48411 2.30713,-4.71469 5.9742,-1.80037c11.8385,9.40839 37.85048,30.09029 46.16697,36.77964c5.42561,4.36408 13.45594,4.46739 17.37599,1.39721c8.31857,-6.51509 39.65784,-31.05994 49.98957,-39.15173c2.09533,-1.64105 3.32661,-0.89404 3.32661,1.27526c0,11.26351 0,104.61935 0,104.61935" fill="none" stroke="#ff5600" stroke-width="5" stroke-linecap="round"/><path d="M87.36104,150.11935c0,0 0,-15.48258 0,-19.11935c0,-1.45191 1.45947,-1.87974 2.88221,-0.74156c4.05857,3.24686 23.45443,18.76354 23.45443,18.76354" fill="none" stroke="#ff5600" stroke-width="2.5" stroke-linecap="round"/><path d="M132.52772,197.95268c0,9.1127 -0.44771,16.5 -1,16.5c-0.55229,0 -1,-7.3873 -1,-16.5c0,-9.1127 0.44771,-16.5 1,-16.5c0.55229,0 1,7.3873 1,16.5z" fill="none" stroke="#ff5600" stroke-width="5" stroke-linecap="butt"/><path d="M156.86103,197.95268c0,9.1127 -0.44771,16.5 -1,16.5c-0.55229,0 -1,-7.3873 -1,-16.5c0,-9.1127 0.44771,-16.5 1,-16.5c0.55229,0 1,7.3873 1,16.5z" fill="#ff5600" stroke="#ff5600" stroke-width="5" stroke-linecap="butt"/><text transform="translate(210.52772,158.86376) scale(1.57604,1.57604)" font-size="40" xml:space="preserve" fill="#ff5600" fill-rule="nonzero" stroke="#ffffff" stroke-width="0" stroke-linecap="butt" stroke-linejoin="miter" stroke-miterlimit="10" stroke-dasharray="" stroke-dashoffset="0" font-family="Sans Serif" font-weight="normal" text-anchor="start" style="mix-blend-mode: normal"><tspan x="0" dy="0">eower</tspan></text><text transform="translate(212.52772,227.36376) scale(1.57604,1.57604)" font-size="40" xml:space="preserve" fill="#ff5600" fill-rule="nonzero" stroke="#ffffff" stroke-width="0" stroke-linecap="butt" stroke-linejoin="miter" stroke-miterlimit="10" stroke-dasharray="" stroke-dashoffset="0" font-family="Sans Serif" font-weight="normal" text-anchor="start" style="mix-blend-mode: normal"><tspan x="0" dy="0">edia</tspan></text><path d="M173.36106,150.02199c0,0 19.43148,-15.54518 23.47961,-18.78368c1.4121,-1.12968 2.85703,-0.07056 2.85703,1.7617c0,2.18041 0,7.63976 0,12c0,3.39231 0,6.11935 0,6.11935" data-paper-data="{&quot;index&quot;:null}" fill="none" stroke="#ff5600" stroke-width="2.5" stroke-linecap="round"/></g></g></svg>