<svg version="1.1" xmlns="http://www.w3.org/2000/svg" xmlns:xlink="http://www.w3.org/1999/xlink" width="132.83335" height="119.07783" viewBox="0,0,132.83335,119.07783"><g transform="translate(-173.58333,-120.75552)"><g data-paper-data="{&quot;isPaintingLayer&quot;:true}" fill-rule="nonzero" stroke-linejoin="miter" stroke-miterlimit="10" stroke-dasharray="" stroke-dashoffset="0" style="mix-blend-mode: normal"><path d="M178.58333,234.16669c0,0 0,-98.8391 0,-108.41117c0,-1.49301 1.3708,-1.48624 3.00212,-0.17409c6.19392,4.98206 44.99637,38.19274 55.63595,46.75066c1.71239,1.37736 3.82063,1.28655 5.76363,-0.2352c11.48673,-8.99639 51.55012,-42.37395 56.61058,-46.33729c1.0335,-0.80944 1.82107,-0.4127 1.82107,0.98327c0,9.26293 0,108.09048 0,108.09048" fill="none" stroke="#ff5600" stroke-width="10" stroke-linecap="round"/><path d="M186.25843,157.21713v-17.6834l21.00997,16.80798" fill="#b33c00" stroke="#ff5600" stroke-width="2.5" stroke-linecap="round"/><path d="M272.87631,157.60087l21.00997,-16.80797v17.68341" data-paper-data="{&quot;index&quot;:null}" fill="#b33c00" stroke="#ff5600" stroke-width="2.5" stroke-linecap="round"/><path d="M246.03049,196.00023c0,-4.47112 1.02896,-8.09569 2.29826,-8.09569c1.2693,0 2.29826,3.62456 2.29826,8.09569c0,4.47112 -1.02897,8.09569 -2.29826,8.09569c-1.2693,0 -2.29826,-3.62456 -2.29826,-8.09569z" fill="#000000" stroke="#000000" stroke-width="4.5" stroke-linecap="butt"/><path d="M225.95614,195.77072c0,-4.47112 1.02896,-8.09568 2.29826,-8.09568c1.2693,0 2.29826,3.62456 2.29826,8.09568c0,4.47112 -1.02897,8.0957 -2.29826,8.0957c-1.2693,0 -2.29826,-3.62457 -2.29826,-8.0957z" fill="#000000" stroke="#000000" stroke-width="4.5" stroke-linecap="butt"/><g fill="#000000" stroke-linecap="butt"><path d="M248.51324,218.73878c0.21742,0.54464 -0.32721,0.76206 -0.32721,0.76206l-0.82003,0.32737c-3.96256,1.51153 -7.75432,0.80699 -9.38393,-2.21158c-1.80368,3.41438 -5.46048,5.15346 -8.71563,1.30117l-0.36922,-0.90446c0,0 -0.21743,-0.54464 0.32721,-0.76206c0.54464,-0.21742 0.76206,0.32721 0.76206,0.32721l0.2855,0.73559c2.90259,3.43504 5.92189,1.11878 7.12589,-2.22642c-0.22992,-0.91995 -0.30926,-1.98226 -0.20792,-3.18841c0,0 0.0491,-0.58438 0.63347,-0.53528c0.58438,0.0491 0.53528,0.63347 0.53528,0.63347c-0.0065,0.07738 -0.01216,0.15406 -0.01701,0.23006c0.05912,-0.01247 0.12629,-0.01686 0.20257,-0.01044c0.58438,0.0491 0.53528,0.63347 0.53528,0.63347c-0.0649,0.77252 -0.22222,1.53115 -0.4568,2.24956c1.0251,3.36695 4.51531,4.24607 8.30839,2.63884l0.82003,-0.32737c0,0 0.54464,-0.21743 0.76206,0.32721z" stroke="none" stroke-width="0.5"/><path d="M234.56085,211.31329c0.22492,-1.24631 2.79885,-1.4604 4.04516,-1.23549c1.24631,0.22492 3.76252,0.34326 3.53761,1.58957c-0.22492,1.24631 -2.79885,3.76252 -4.04516,3.53761c-1.24631,-0.22492 -3.76252,-2.64537 -3.53761,-3.89168z" stroke="#ff5600" stroke-width="0"/></g></g></g></svg>