<svg version="1.1" xmlns="http://www.w3.org/2000/svg" xmlns:xlink="http://www.w3.org/1999/xlink" width="387.1819" height="113.90662" viewBox="0,0,387.1819,113.90662"><g transform="translate(-46.43916,-139.30286)"><g data-paper-data="{&quot;isPaintingLayer&quot;:true}" fill-rule="nonzero" stroke-linejoin="miter" stroke-miterlimit="10" stroke-dasharray="" stroke-dashoffset="0" style="mix-blend-mode: normal"><g stroke="#000000" stroke-width="5"><path d="M266.90621,218.13049v-76.32763h53.53296v76.32763z" data-paper-data="{&quot;index&quot;:null}" fill="none" stroke-linecap="butt"/><path d="M287.62865,167.7059h-20.72244" data-paper-data="{&quot;index&quot;:null}" fill="#000000" stroke-linecap="round"/><path d="M287.28327,191.88207h-18.99556" data-paper-data="{&quot;index&quot;:null}" fill="#000000" stroke-linecap="round"/><path d="M319.05767,216.74899h-14.85107l14.5057,-14.50571z" data-paper-data="{&quot;index&quot;:null}" fill="#000000" stroke-linecap="round"/><path d="M317.3308,158.3808l-14.50571,-14.5057h14.85108z" data-paper-data="{&quot;index&quot;:null}" fill="#000000" stroke-linecap="round"/></g><path d="M48.93917,218.13049v-76.32763h53.53296v76.32763z" fill="none" stroke="#000000" stroke-width="5" stroke-linecap="butt"/><path d="M101.436,197.40805h-22.4493" fill="#000000" stroke="#000000" stroke-width="5" stroke-linecap="round"/><path d="M50.32065,163.21603h24.86692" fill="#000000" stroke="#000000" stroke-width="5" stroke-linecap="round"/><path d="M101.09063,158.03543l-14.50571,-14.5057h14.85108z" fill="#000000" stroke="#000000" stroke-width="5" stroke-linecap="round"/><path d="M52.04753,201.55254l14.50571,14.5057h-14.85108z" data-paper-data="{&quot;index&quot;:null}" fill="#000000" stroke="#000000" stroke-width="5" stroke-linecap="round"/><g stroke="#000000" stroke-width="5"><path d="M212.68251,218.13049v-76.32763h53.53295v76.32763z" fill="none" stroke-linecap="butt"/><path d="M215.10013,168.7454h22.79467" fill="#000000" stroke-linecap="round"/><path d="M264.14321,197.13492h-20.37706" fill="#000000" stroke-linecap="round"/><path d="M266.21547,159.41693l-14.50571,-14.50571h14.85108z" fill="#000000" stroke-linecap="round"/></g><g stroke="#000000" stroke-width="5"><path d="M102.47212,218.13049v-76.32763h53.53295v76.32763z" fill="none" stroke-linecap="butt"/><path d="M156.00506,167.7059h-20.72243" fill="#000000" stroke-linecap="round"/><path d="M154.62357,191.88207h-18.99556" fill="#000000" stroke-linecap="round"/><path d="M104.19899,202.24329l14.5057,14.50571h-14.85107z" data-paper-data="{&quot;index&quot;:null}" fill="#000000" stroke-linecap="round"/><path d="M105.23511,143.8751h14.85107l-14.5057,14.5057z" data-paper-data="{&quot;index&quot;:null}" fill="#000000" stroke-linecap="round"/></g><g stroke="#000000" stroke-width="5"><path d="M321.34917,218.19715v-76.32763h53.53296v76.32763z" fill="none" stroke-linecap="butt"/><path d="M347.51348,143.50589v25.66667" fill="#000000" stroke-linecap="round"/><path d="M321.55434,215.51687v-23.5h19.8v23.5z" fill="#000000" stroke-linecap="butt"/></g><g stroke="#000000" stroke-width="5"><path d="M430.71547,141.80286v76.32763h-53.53296v-76.32763z" data-paper-data="{&quot;index&quot;:null}" fill="none" stroke-linecap="butt"/><path d="M402.39481,192.68794h-22.79468" data-paper-data="{&quot;index&quot;:null}" fill="#000000" stroke-linecap="round"/><path d="M428.64322,163.79842h-20.37706" data-paper-data="{&quot;index&quot;:null}" fill="#000000" stroke-linecap="round"/><path d="M431.06084,215.02212h-14.85108l14.5057,-14.50571z" data-paper-data="{&quot;index&quot;:null}" fill="#000000" stroke-linecap="round"/></g><path d="M47.86036,239.12614v-10h10v10z" fill="#000000" stroke="none" stroke-width="5" stroke-linecap="butt"/><path d="M66.02702,251.95948v-24.5h25.5v24.5z" fill="none" stroke="#000000" stroke-width="2.5" stroke-linecap="butt"/><path d="M83.02702,239.95948h7" fill="#000000" stroke="#000000" stroke-width="2.5" stroke-linecap="round"/><path d="M67.67568,229.73221h7l-6.83333,6.83333z" fill="#000000" stroke="#000000" stroke-width="2" stroke-linecap="round"/><path d="M68.34234,243.23221l6.83333,6.83333h-7z" data-paper-data="{&quot;index&quot;:null}" fill="#000000" stroke="#000000" stroke-width="2.5" stroke-linecap="round"/><path d="M92.69369,251.95948v-24.5h25.5v24.5z" fill="none" stroke="#000000" stroke-width="2.5" stroke-linecap="butt"/><path d="M94.34235,229.73221h7l-6.83334,6.83333z" fill="#000000" stroke="#000000" stroke-width="2.5" stroke-linecap="round"/><path d="M95.00901,243.23221l6.83334,6.83333h-7z" data-paper-data="{&quot;index&quot;:null}" fill="#000000" stroke="#000000" stroke-width="2.5" stroke-linecap="round"/><path d="M116.34235,250.7322h-7l6.83333,-6.83333z" data-paper-data="{&quot;index&quot;:null}" fill="#000000" stroke="#000000" stroke-width="2.5" stroke-linecap="round"/><path d="M117.50902,236.7322l-6.83334,-6.83333h7z" data-paper-data="{&quot;index&quot;:null}" fill="#000000" stroke="#000000" stroke-width="2.5" stroke-linecap="round"/><path d="M105.67568,236.73221v5.33333" fill="#000000" stroke="#000000" stroke-width="2.5" stroke-linecap="round"/><path d="M120.19369,251.95948v-24.5h25.5v24.5z" fill="none" stroke="#000000" stroke-width="2.5" stroke-linecap="butt"/><path d="M121.84235,229.73221h7l-6.83333,6.83333z" fill="#000000" stroke="#000000" stroke-width="2.5" stroke-linecap="round"/><path d="M145.00901,236.7322l-6.83334,-6.83333h7z" data-paper-data="{&quot;index&quot;:null}" fill="#000000" stroke="#000000" stroke-width="2.5" stroke-linecap="round"/><path d="M129.17091,250.56554v-6.83333" fill="#000000" stroke="#000000" stroke-width="2.5" stroke-linecap="round"/><path d="M136.84235,250.39887v-6.5" fill="#000000" stroke="#000000" stroke-width="2.5" stroke-linecap="round"/><g stroke="#000000" stroke-width="5"><path d="M157.04119,218.13049v-76.32763h53.53295v76.32763z" fill="none" stroke-linecap="butt"/><path d="M182.94424,202.93404v-45.24398" fill="#000000" stroke-linecap="round"/><path d="M209.88341,143.18435v15.91033l-19.25571,-16.25571" fill="#000000" stroke-linecap="round"/><path d="M193.30545,216.74899l14.50571,-14.50571v14.16033h-14.16033" data-paper-data="{&quot;index&quot;:null}" fill="#000000" stroke-linecap="round"/></g></g></g></svg>