<svg version="1.1" xmlns="http://www.w3.org/2000/svg" xmlns:xlink="http://www.w3.org/1999/xlink" width="256.94241" height="74.58197" viewBox="0,0,256.94241,74.58197"><g transform="translate(-111.6538,-142.71583)"><g data-paper-data="{&quot;isPaintingLayer&quot;:true}" fill="#00a978" fill-rule="nonzero" stroke="#00a878" stroke-linecap="butt" stroke-linejoin="miter" stroke-miterlimit="10" stroke-dasharray="" stroke-dashoffset="0" style="mix-blend-mode: normal"><path d="M139.9456,196.35553c0,2.5 -2.5,2.5 -2.5,2.5l-0.38308,-0.00273c-4.35219,0.20269 -7.91434,0.68336 -12.08731,2.0226c-3.07802,0.86468 -9.77643,3.52011 -12.65624,0.29446c-1.27835,-1.43187 0.73643,-3.79305 1.46436,-5.56915c1.38678,-3.38366 5.03187,-6.81981 7.13372,-9.70633c2.70619,-3.71649 5.14311,-7.51777 7.99499,-11.13909c1.82295,-2.3148 3.72945,-4.56352 5.53038,-6.89549c0.59488,-0.77029 1.0712,-1.6276 1.66784,-2.39652c0.27697,-0.35694 1.37306,-0.82555 0.9454,-0.97126c-0.48716,-0.16599 -0.77155,0.82583 -1.28536,0.85543c-1.66322,0.0958 -3.30946,-0.41188 -4.97337,-0.49495c-4.87344,-0.24329 -9.75908,0.00319 -14.60257,0.49063c0,0 -2.48759,0.24876 -2.73635,-2.23884c-0.24876,-2.48759 2.23884,-2.73635 2.23884,-2.73635c6.72029,-0.66796 13.60894,-0.94736 20.3253,-0.01415c1.61468,0.22436 3.88733,-0.47633 4.81341,0.86526c2.31107,3.348 -0.65614,7.26873 -2.38676,9.63222c-4.42,6.03633 -9.06762,11.9108 -13.47463,17.96542c-1.6075,2.20848 -3.40654,4.27408 -4.99655,6.49519c-0.51064,0.71332 -0.8682,1.5502 -1.38907,2.25034c1.81028,-0.67249 4.07205,-1.22013 4.94268,-1.47377c4.5619,-1.43618 8.53974,-2.00626 13.29745,-2.23018l0.61693,-0.00274c0,0 2.5,0 2.5,2.5z" stroke-width="0.5"/><path d="M166.9456,188.35553c0,2.20835 -1.95074,2.46598 -2.40587,2.49604c-4.12758,2.03415 -8.42492,3.8239 -12.75665,5.35952c-1.21813,0.43184 -2.50245,0.79871 -3.6485,1.39149c-0.312,0.62599 -0.937,1.25295 -2.18897,1.25295c-0.05692,0 -0.11255,-0.00129 -0.16691,-0.00382c-0.69056,0.13125 -1.57558,0.01383 -2.33309,-0.99618c-1.01011,-1.34681 -0.43306,-2.46688 0.05161,-3.05484c0.27474,-4.45897 1.56513,-8.74753 1.96055,-13.19149c0.24003,-2.69759 0.73095,-5.31236 1,-8c0.15254,-1.52376 -0.24791,-3.77278 0.03294,-5.22643c0.52776,-2.73166 1.47035,-4.16409 1.4549,-7.02724l0.47331,-0.39442c0.1865,-1.11693 1.24045,-1.7493 1.24045,-1.7493c6.34107,-3.78256 13.26976,-4.98091 20.14457,-7.27252l2.65138,-0.5352c0,0 2.45145,-0.49029 2.94174,1.96116c0.49029,2.45145 -1.96116,2.94175 -1.96116,2.94175l-2.34862,0.46479c-6.19259,2.06419 -12.52414,3.09916 -18.258,6.37644c-0.27078,2.15555 -0.95556,3.91647 -1.42878,6.18009c-0.32562,1.55755 0.19114,3.19023 0.03294,4.77357c-0.04233,0.42363 -0.08988,0.84512 -0.14095,1.26517c3.10596,-1.36086 6.3856,-2.35791 9.58817,-3.52081c0.71616,-0.9907 2.06495,-0.99071 2.06495,-0.99071l1.92847,4.8212c-4.74168,1.89453 -9.96858,3.06792 -14.36319,5.65561c-0.02766,0.2558 -0.05361,0.51226 -0.07746,0.76954c-0.29659,3.19946 -1.09328,6.32762 -1.58335,9.49708c4.52484,-2.01719 9.63205,-3.30499 13.97748,-5.47949l1.61804,-0.26394c0,0 2.5,0 2.5,2.5z" stroke-width="0.5"/><path d="M173.9456,193.35553c0,0.72817 -0.2121,1.24426 -0.51273,1.61002c-0.00679,0.13934 -0.01707,0.27845 -0.03238,0.41722c-0.02993,0.27114 -0.51173,0.66008 -0.26413,0.77456c0.25171,0.11638 0.26461,-0.51656 0.49789,-0.66648c1.39587,-0.89705 2.886,-1.71431 4.04358,-2.90309c7.09591,-7.01159 16.29077,-11.62531 19.35921,-21.90217c0.57483,-1.92523 1.19658,-4.10039 0.54949,-6.00254c-1.19544,-3.51405 -6.95757,-6.5037 -10.56654,-5.3944c-0.95769,0.29437 -1.80841,0.84936 -2.67587,1.36355c-0.91673,5.07231 -2.90083,9.67193 -4.52106,14.47644c-1.20113,3.56174 -1.16286,7.55236 -2.54752,11.1332c-0.97959,2.53329 -2.04868,3.94838 -3.49338,6.097c0.10264,0.27775 0.16344,0.60682 0.16344,0.99669zM185.87122,154.42241c5.25794,-1.42462 10.92784,1.4305 14.02656,5.37138c0.83064,1.05639 1.98631,1.95789 2.4069,3.23422c0.51893,1.57476 -0.01313,7.49197 -0.4505,8.99745c-1.0369,3.56909 -3.57818,8.69511 -6.09243,11.5481c-4.18303,4.74661 -10.14429,8.07978 -14.54837,12.54973c-2.09194,2.05052 -7.00369,6.41764 -10.45853,4.43043c-1.38514,-0.79673 -1.77601,-2.70388 -2.26413,-4.22543c-0.30273,-0.94366 -0.03007,-1.98185 -0.0451,-2.97277l0.82166,-0.68471c-0.8516,-1.27731 0.09821,-2.70203 0.09821,-2.70203c1.26605,-1.89332 2.43497,-3.38597 3.25019,-5.51955c1.33531,-3.49475 1.29952,-7.37136 2.45248,-10.8668c1.54775,-4.69234 3.59555,-9.15974 4.41147,-14.13789l0.45079,-1.05426c0.10495,-0.57195 0.43614,-1.00535 0.74974,-1.3002c0.26224,-0.27891 0.63408,-0.57175 1.11553,-0.70695c1.34032,-0.7023 2.62019,-1.56639 4.07555,-1.96072z" stroke-width="0.5"/><path d="M113.9321,214.06008c0,-0.9665 0.7835,-1.75 1.75,-1.75c0.9665,0 1.75,0.7835 1.75,1.75c0,0.9665 -0.7835,1.75 -1.75,1.75c-0.9665,0 -1.75,-0.7835 -1.75,-1.75z" stroke-width="0.5"/><path d="M127.93209,214.56008c0,1.75 -1.75,1.75 -1.75,1.75l-2.47073,-0.29391c-0.69074,-0.54344 -1.65346,-0.85761 -2.0722,-1.63034c-1.73815,-3.20752 0.86042,-6.24032 2.69854,-8.44607c0,0 1.12032,-1.34439 2.46471,-0.22406c1.34439,1.12032 0.22406,2.46471 0.22406,2.46471c-1.01451,1.21741 -3.82255,3.94787 -1.37366,4.92359l0.52927,-0.29391c0,0 1.75,0 1.75,1.75z" stroke-width="0.5"/><path d="M133.13327,216.25137c-0.57201,-0.21767 -0.90727,-0.72056 -0.90727,-0.72056c-0.78501,-1.22957 -1.43242,-2.64181 -1.53951,-4.09667c-0.05448,-0.74004 -0.15458,-1.50754 0.03134,-2.22592c2.54717,-9.84218 13.94982,2.48742 7.14731,7.33238c-0.67517,0.48088 -1.62371,0.3346 -2.43556,0.5019l-1.55089,-0.32222c0,0 -0.40278,-0.13426 -0.74542,-0.46891zM135.12318,213.56821c2.1003,-0.22114 1.23761,-4.25307 -0.35108,-4.76547c-0.40401,-0.13031 -0.57804,0.68738 -0.62574,1.10919c-0.171,1.5121 0.1295,2.45983 0.97682,3.65627z" stroke-width="0.5"/><path d="M153.93209,216.56008c-1.75,0 -1.75,-1.75 -1.75,-1.75l0.05225,-1.07556c-0.10837,-0.52074 -0.26369,-1.03388 -0.3251,-1.56221c-0.00051,-0.00438 -0.00082,-0.00904 -0.00095,-0.01395c-0.17715,0.64885 -0.27533,1.01234 -1.23877,1.63916c-0.04468,0.02907 -0.08967,0.05757 -0.13496,0.08553l0.01785,0.02142l-1.49118,1.24265c-0.30477,0.25764 -0.69882,0.41297 -1.12915,0.41297c-0.9665,0 -1.75,-0.7835 -1.75,-1.75v-0.8175c-0.01432,0.01518 -0.02878,0.03039 -0.04337,0.04564l-0.92035,1.61061c-0.29709,0.543 -0.87368,0.91125 -1.53628,0.91125c-0.9665,0 -1.75,-0.7835 -1.75,-1.75c0,-1.16667 0,-4.08333 0,-5.25c0,0 0,-1.75 1.75,-1.75c1.75,0 1.75,1.75 1.75,1.75c0,0.05022 0,0.10044 0,0.15066c1.06476,-0.49914 2.36676,-0.62614 3.21499,-0.11055c0.40353,0.24528 0.59325,0.65706 0.69874,1.13443c0.81663,-0.88719 2.06622,-1.53542 3.00871,-1.41602c2.60683,0.33023 2.78764,2.80556 3.27531,4.56705l0.05225,1.92444c0,0 0,1.75 -1.75,1.75z" stroke-width="0.5"/><g stroke-width="1"><path d="M335.55712,161.90743c-0.90252,1.25586 -2.15837,0.35334 -2.15837,0.35334l-0.85947,-0.65463c-2.56018,-1.16099 -4.98852,-2.3114 -7.4058,-3.75779c-3.36735,-2.07345 -6.594,-4.27381 -9.95965,-6.3049c-0.09508,-0.05738 -1.21361,-0.71101 -2.16253,-1.45825c-0.00654,1.0154 -0.11432,2.04381 -0.04326,3.0541c0.40037,5.69184 0.49275,11.38463 0.70973,17.08558c0,0 0.05862,1.54541 -1.48679,1.60402c-1.54541,0.05862 -1.60402,-1.48679 -1.60402,-1.48679c-0.24274,-6.421 -0.80676,-12.86369 -0.97375,-19.27115c-0.01376,-0.52788 0.11679,-5.39459 0.83487,-5.75857c1.78153,-0.90301 3.80308,1.65685 4.83088,2.50617c1.23992,1.02461 2.79819,1.59101 4.14678,2.46768c2.46431,1.60196 4.79265,3.36626 7.31377,4.91871c2.30768,1.38588 4.63082,2.47489 7.0772,3.58427l1.38708,0.95984c0,0 1.25586,0.90252 0.35334,2.15838z"/><path d="M360.88401,176.87208c-1.52689,-0.2456 -1.28129,-1.77249 -1.28129,-1.77249l0.2456,-1.52689c0.32962,-2.04924 0.65942,-4.09844 0.98939,-6.14762c0.82003,-3.8122 1.65104,-7.49042 1.8418,-11.3942c0.04696,-0.96098 0.05285,-1.92496 0.14324,-2.88283c0.03616,-0.38318 0.06441,-0.77389 0.14123,-1.15137c-0.33026,0.10409 -0.68229,0.17266 -0.98716,0.32839c-1.7661,0.90217 -3.39361,2.06447 -5.17734,2.93125c-4.58962,2.23027 -10.35713,4.13009 -14.04585,7.73472c0,0 -1.11262,1.07415 -2.18677,-0.03846c-1.07415,-1.11262 0.03846,-2.18677 0.03846,-2.18677c4.74929,-4.54022 11.8242,-6.53634 17.47023,-9.73421c1.82791,-1.03532 2.4068,-1.59227 4.24696,-2.17001c0.88912,-0.27915 1.9338,-1.2203 2.70675,-0.69973c1.96743,1.32502 1.0214,3.6601 0.86975,5.30777c-0.458,4.9762 -0.96354,9.61764 -2.0215,14.52677c-0.32496,2.02253 -0.65011,4.04503 -0.97542,6.06751l-0.2456,1.52689c0,0 -0.2456,1.52689 -1.77249,1.28129z"/><path d="M363.44426,197.96034c-1.52689,-0.2456 -1.28129,-1.77249 -1.28129,-1.77249l0.04912,-0.30538c0.31401,-1.92981 1.0766,-3.67691 1.52655,-5.54783c0.51555,-2.14368 0.38496,-4.45461 1.10759,-6.44957c-2.57261,1.76295 -4.85333,3.918 -6.97959,6.215c0,0 -0.00606,0.00653 -0.01774,0.01814c-0.03556,0.28825 -0.17462,0.6008 -0.49506,0.91016c-1.11262,1.07415 -2.18677,-0.03846 -2.18677,-0.03846l-1.04393,-1.08216c-0.75471,-0.69955 -2.23681,-1.7959 -3.20911,-2.79222c-0.02665,0.45145 -0.08417,0.91987 -0.06439,1.28684c0.12313,2.2852 0.67065,4.64252 1.03867,6.89056c0,0 0.24985,1.5262 -1.27636,1.77605c-1.5262,0.24985 -1.77605,-1.27636 -1.77605,-1.27636c-0.47125,-2.87866 -1.67475,-6.71104 -1.0328,-9.63552c0.25865,-1.17828 0.18391,-2.80507 1.23165,-3.40297c0.90994,-0.51926 2.04538,0.5259 2.97981,0.99969c1.40207,0.71091 2.88371,2.58918 4.05687,3.73809c2.51267,-2.65994 5.24117,-5.15521 8.38875,-7.02162l1.00218,-0.96754c0.3388,-0.33425 0.8268,-0.50815 1.3327,-0.42678c0.79256,0.12748 1.34695,0.83614 1.29816,1.62102l-0.13579,2.77889l-0.01222,-0.0006c0.00201,0.02862 0.00391,0.05725 0.00568,0.0859c0.26623,4.30582 -2.02346,8.64465 -2.68505,12.81246l-0.04912,0.30538c0,0 -0.2456,1.52689 -1.77249,1.28129z"/><path d="M362.07485,195.69262c1.25334,-0.90601 2.15935,0.34733 2.15935,0.34733l0.3718,0.54085c0.7994,1.54915 1.60265,3.50374 1.62688,5.29122c0.01039,0.76685 -0.13777,1.53638 -0.34525,2.27471c-1.1103,3.95114 -3.9859,3.30975 -7.22272,3.06216c-2.39326,-0.18306 -4.74032,-0.08615 -6.9895,-1.18158c-2.85527,-1.39062 -4.34592,-3.62292 -3.78412,-6.80933c0.12395,-0.70302 0.07025,-1.49173 0.45581,-2.09251c0.42209,-0.6577 1.21911,-0.9781 1.82866,-1.46715c0,0 1.25334,-0.906 2.15935,0.34733c0.90601,1.25334 -0.34733,2.15935 -0.34733,2.15935c-1.58474,0.91705 -1.70575,3.19553 -0.10835,4.40158c2.06941,1.56242 4.56185,1.37052 6.97338,1.55499c0.37255,0.0285 3.2325,0.87988 3.82777,0.08619c1.21952,-1.626 -0.00977,-4.69723 -0.81232,-6.18765l-0.14073,-0.16814c0,0 -0.906,-1.25334 0.34733,-2.15935z"/><path d="M330.6409,170.1278c1.52689,0.2456 1.28129,1.77249 1.28129,1.77249c-0.4912,3.05378 -1.228,7.63446 -1.71921,10.68824c0,0 -0.2456,1.52689 -1.77249,1.28129c-1.52689,-0.2456 -1.28129,-1.77249 -1.28129,-1.77249c0.4912,-3.05378 0.9824,-6.10757 1.47361,-9.16135l0.2456,-1.52689c0,0 0.2456,-1.52689 1.77249,-1.28129z"/><path d="M343.061,171.23251c1.42173,0.60859 0.81314,2.03033 0.81314,2.03033l-0.39671,0.8094c-0.54485,3.38732 -1.38265,6.64824 -1.92634,10.02836c0,0 -0.2456,1.52689 -1.77249,1.28129c-1.52689,-0.2456 -1.28129,-1.77249 -1.28129,-1.77249c0.54416,-3.383 1.38148,-6.64097 1.92634,-10.02836l0.60701,-1.53539c0,0 0.60859,-1.42174 2.03033,-0.81314z"/><path d="M332.53598,195.49127c0.16717,-0.42901 0.54959,-0.92186 1.42428,-0.91756c1.5465,0.00761 1.53888,1.55411 1.53888,1.55411l-0.75888,1.63171c-1.50015,0.87672 -2.67779,1.77832 -4.59495,1.74229c-0.78977,-0.01484 -1.52675,-0.44937 -2.22116,-0.82585c-0.29559,-0.16026 -0.34317,-0.72373 -0.67865,-0.7463c-0.45075,-0.03032 -0.75367,0.61441 -1.20541,0.61955c-0.87001,0.00989 -1.85772,-0.0442 -2.54564,-0.5769c-2.91351,-2.25611 -1.89328,-4.56078 -0.43097,-7.03172c0,0 0.8022,-1.3222 2.12439,-0.52c1.3222,0.8022 0.52,2.12439 0.52,2.12439c-0.18264,0.29126 -2.1726,3.42337 0.06461,2.92279c0.64641,-0.14463 1.23778,-0.69496 1.89368,-0.60241c1.01369,0.14303 1.62896,1.57409 2.65236,1.54826c0.70388,-0.01776 1.53451,-0.49589 2.21747,-0.92238z"/></g><path d="M226.0076,192.52846c0.2678,2.14757 -1.87977,2.41537 -1.87977,2.41537l-1.81878,0.21971c-2.36951,0.6871 -4.87751,0.74804 -7.3228,1.07559c-2.60179,0.34851 -5.02749,1.60647 -7.63006,1.94914l-4.14658,1.0518c-0.23412,0.06525 -0.48331,0.09187 -0.73965,0.07304c-1.19204,-0.08758 -2.08739,-1.12491 -1.99982,-2.31696c0.02209,-0.30067 0.1046,-0.58247 0.23478,-0.83438l0.90751,-1.8604l0.10074,0.04914l0.05936,-0.32402c0.58876,-0.63999 1.17753,-1.27998 1.76629,-1.91997c3.75962,-6.34544 6.00022,-13.08071 8.30023,-20.06017c0.97899,-2.97079 1.90478,-5.23652 2.12756,-8.38471c0.20379,-2.87987 0.20981,-5.62804 0.23613,-8.48382c0.00545,-0.5919 0.71489,-2.57719 -0.21546,-3.16766c-0.26552,-0.16852 -0.05679,0.7257 -0.32823,0.88452c-1.71864,1.00561 -3.77983,1.49377 -5.26771,2.8171c0,0 -1.63834,1.41408 -3.05242,-0.22425c-1.41408,-1.63834 0.22425,-3.05242 0.22425,-3.05242c1.77865,-1.50179 3.95883,-2.49137 6.10816,-3.38544c1.0382,-0.43186 2.09158,-1.75816 3.11548,-1.29343c5.15831,2.34122 4.04399,8.70309 3.72722,13.08308c-0.81943,11.33026 -5.18458,22.98917 -10.92417,32.86685c4.25371,-1.8256 9.35415,-1.44792 13.83911,-2.78063l2.16323,-0.27685c0,0 2.14757,-0.2678 2.41537,1.87977z" stroke-width="0.5"/><path d="M233.11801,198.57378c-1.85961,-1.10709 -0.75251,-2.9667 -0.75251,-2.9667l0.38965,-0.64754c2.18854,-4.20512 4.17133,-8.17708 7.76928,-11.28254c2.63877,-4.52254 5.56227,-9.04159 4.8264,-14.62219c-0.0276,-0.20929 -0.39814,0.14049 -0.59729,0.21054c-0.57332,0.20166 -1.11247,0.59233 -1.72009,0.6046c-2.18054,0.04401 -4.96691,1.08465 -6.52825,-0.43813c-1.17257,-1.14361 0.71069,-3.20132 1.1911,-4.76719c1.47982,-4.82347 3.11331,-9.69951 3.67155,-14.71082c0.01988,-0.17845 -0.20056,0.30808 -0.34693,0.41207c-0.60116,0.4271 -1.24202,0.79611 -1.87831,1.16887c-0.73107,0.42828 -1.55854,0.70713 -2.22249,1.2335c-0.87037,0.69002 -1.55574,1.58568 -2.33361,2.37852c0,0 -1.52506,1.53557 -3.06063,0.01052c-1.53557,-1.52506 -0.01052,-3.06063 -0.01052,-3.06063c1.9274,-1.92071 5.57626,-5.60615 8.55816,-5.95422c1.46593,-0.17112 3.30679,-0.27354 4.36228,0.75805c1.04537,1.0217 0.72769,2.84894 0.82084,4.3077c0.22153,3.46932 -1.07424,7.78386 -2.0367,11.09048c-0.30954,1.06343 -0.57875,2.17066 -1.04104,3.17527c2.24202,-0.8731 5.39847,-0.81214 6.49427,0.8065c1.08704,1.6057 0.71993,3.82885 0.75838,5.76752c0.1131,5.70292 -2.78316,9.7713 -5.5906,14.41041c-3.38263,2.91962 -5.18284,6.52914 -7.24569,10.49838l-0.51054,0.86454c0,0 -1.10709,1.85961 -2.9667,0.75251z" stroke-width="0.5"/><path d="M258.28212,202.22984c-2.15839,-0.15857 -1.99982,-2.31696 -1.99982,-2.31696l0.14193,-1.52998c1.07627,-4.3777 3.32526,-8.50281 4.09043,-12.97134c0.80052,-4.67495 1.885,-9.33018 3.10731,-13.95115c-1.04264,0.25011 -2.08234,0.49847 -3.0955,0.78316c-1.03257,0.29014 -2.11871,1.03405 -3.13952,0.7049c-1.30518,-0.42084 -2.63211,-1.42209 -3.09177,-2.71412c-0.58419,-1.64208 1.49664,-7.16899 1.93196,-8.56918c0.84907,-2.73097 1.93374,-5.38772 2.71488,-8.13889c0.34252,-1.20635 0.3035,-2.50877 0.71387,-3.69376c0.58667,-1.69408 1.54378,-3.27877 1.87642,-5.04043c0,0 0.42506,-2.12205 2.54711,-1.69699c2.12205,0.42506 1.69699,2.54711 1.69699,2.54711c-0.24177,1.15427 -0.32376,2.35396 -0.72531,3.46281c-0.29793,0.82272 -1.05772,1.42776 -1.34501,2.25426c-0.36823,1.05933 -0.28514,2.23311 -0.58996,3.3124c-1.2932,4.57889 -2.74359,9.83138 -4.72348,14.16771c-0.14507,0.31773 0.45215,-0.57176 0.77486,-0.70538c0.9425,-0.39025 1.917,-0.70177 2.89418,-0.99456c1.02342,-0.30664 1.98328,-0.45765 2.91857,-0.62544c0.3991,-1.40811 0.80623,-2.8125 1.2172,-4.21278c1.74744,-5.95405 4.327,-11.07501 4.7746,-17.33558c0,0 0.15857,-2.15839 2.31696,-1.99982c2.15839,0.15857 1.99982,2.31696 1.99982,2.31696c-0.49704,6.60346 -3.10673,11.9737 -4.94169,18.24941c-0.16714,0.57163 -0.33341,1.14378 -0.49857,1.71644l0.22733,-0.02938c0,0 2.15839,0.15857 1.99982,2.31696c-0.12968,1.76509 -1.59677,1.98067 -2.12712,2.00063c-0.47884,0.21194 -0.96933,0.40346 -1.46848,0.57939c-1.44757,5.3063 -2.74356,10.65393 -3.70094,16.03626c-0.81396,4.57604 -3.07308,8.7689 -4.14904,13.25288l-0.03106,0.82462c0,0 -0.15857,2.15839 -2.31696,1.99982z" stroke-width="0.5"/><path d="M278.10613,199.30673c-1.63157,-1.42189 -0.20968,-3.05346 -0.20968,-3.05346l1.06155,-1.16333c2.55535,-7.29369 5.37754,-14.49625 8.16125,-21.72079c0.41219,-1.06977 1.61553,-4.08993 1.93661,-5.70281c0.28511,-1.43219 -0.01022,-3.4446 1.08813,-4.68803c0.40648,-0.46017 -0.9108,0.83386 -1.4316,1.15904c-1.2377,0.7728 -2.47039,1.55921 -3.76147,2.2391c-1.11998,0.58979 -2.27132,1.11528 -3.43287,1.61975l-1.3672,1.47326c-0.43211,0.4737 -1.06947,0.75151 -1.75853,0.70088c-1.19204,-0.08758 -2.08739,-1.12491 -1.99982,-2.31696c0.02209,-0.30067 0.1046,-0.58247 0.23478,-0.83438l0.82201,-1.68512c0.75425,-3.46817 2.27383,-6.63371 3.04511,-10.09132c0.34526,-1.54776 0.23702,-3.25998 0.99716,-4.65172c1.45275,-2.65983 6.87687,-3.24145 9.42723,-4.46565c0,0 1.95268,-0.93318 2.88586,1.0195c0.93318,1.95268 -1.0195,2.88586 -1.0195,2.88586c-2.22978,1.06133 -4.56818,1.89038 -6.916,2.65596c-0.26298,0.08575 -0.68645,0.03841 -0.77329,0.30103c-0.6003,1.81539 -0.41456,3.825 -0.97764,5.65228c-0.42379,1.37526 -0.90365,2.68117 -1.35789,3.99483c0.05757,-0.0277 0.11442,-0.05641 0.17044,-0.08628c3.17835,-1.69417 7.57945,-6.29619 10.9656,-1.72756c0.65493,0.88363 0.21514,2.20066 0.12864,3.29713c-0.13722,1.73943 -0.69572,4.72403 -1.33458,6.62675c-3.01881,8.9909 -6.65226,17.70422 -10.00714,26.5492l-1.5237,1.80316c0,0 -1.42189,1.63157 -3.05346,0.20968z" stroke-width="0.5"/></g></g></svg>