<svg version="1.1" xmlns="http://www.w3.org/2000/svg" xmlns:xlink="http://www.w3.org/1999/xlink" width="363.96217" height="61.91415" viewBox="0,0,363.96217,61.91415"><g transform="translate(-58.23321,-149.12788)"><g data-paper-data="{&quot;isPaintingLayer&quot;:true}" fill="#ff9400" fill-rule="nonzero" stroke-linecap="butt" stroke-linejoin="miter" stroke-miterlimit="10" stroke-dasharray="" stroke-dashoffset="0" style="mix-blend-mode: normal"><g stroke="#ff9400" stroke-width="1"><path d="M385.43584,169.92657c-0.68419,1.36838 -2.05257,0.68419 -2.05257,0.68419l-0.94228,-0.50435c-2.68291,-0.73172 -5.23539,-1.47383 -7.82356,-2.50675c-3.61462,-1.49611 -7.11175,-3.13829 -10.71805,-4.59329c-0.10188,-0.04111 -1.29703,-0.50378 -2.34123,-1.08453c0.15314,0.99276 0.20943,2.01414 0.43756,2.98972c1.28523,5.49629 2.26982,11.04191 3.37737,16.57592c0,0 0.30004,1.50019 -1.20015,1.80022c-1.50018,0.30004 -1.80022,-1.20015 -1.80022,-1.20015c-1.24583,-6.23323 -2.80887,-12.43716 -3.97859,-18.66907c-0.09637,-0.51341 -0.73343,-5.28722 -0.08927,-5.75553c1.59815,-1.16185 3.97475,1.02076 5.11202,1.68882c1.372,0.80594 2.98293,1.11434 4.43781,1.75871c2.65856,1.17748 5.2098,2.53487 7.91607,3.65508c2.47162,0.99104 4.91171,1.6897 7.47536,2.3889l1.50555,0.71956c0,0 1.36838,0.68419 0.68419,2.05257z"/><path d="M412.52347,180.56358c-1.52989,0 -1.52989,-1.52989 -1.52989,-1.52989v-1.52989c0,-2.05326 0.00018,-4.10653 0.00053,-6.15979c0.20201,-3.85218 0.43581,-7.57524 0.00883,-11.41802c-0.10511,-0.94596 -0.2508,-1.8884 -0.31299,-2.83815c-0.02488,-0.37993 -0.05867,-0.76597 -0.04295,-1.14673c-0.30621,0.15355 -0.63927,0.27582 -0.91256,0.47582c-1.58321,1.1586 -2.99019,2.5495 -4.59618,3.67631c-4.13228,2.89934 -9.46692,5.66096 -12.50338,9.76109c0,0 -0.91794,1.22391 -2.14185,0.30598c-1.22391,-0.91794 -0.30598,-2.14185 -0.30598,-2.14185c3.92534,-5.18053 10.52178,-8.24162 15.53384,-12.25196c1.62267,-1.29836 2.10056,-1.93328 3.80708,-2.78664c0.82454,-0.41233 1.69702,-1.49567 2.53374,-1.10866c2.12974,0.98506 1.57261,3.41433 1.68334,5.04744c0.33444,4.93218 0.56986,9.54488 0.3078,14.50582c0.00035,2.02645 0.00053,4.0529 0.00053,6.07935v1.52989c0,0 0,1.52989 -1.52989,1.52989z"/><path d="M418.33707,200.75816c-1.52989,0 -1.52989,-1.52989 -1.52989,-1.52989v-0.30598c0.00352,-1.93417 0.47386,-3.76035 0.6194,-5.65836c0.16676,-2.17471 -0.32384,-4.41128 0.06854,-6.47327c-2.23569,2.12603 -4.1247,4.58916 -5.84054,7.16667c0,0 -0.00489,0.00733 -0.01448,0.02051c0.01055,0.28712 -0.07616,0.61423 -0.34054,0.96673c-0.91794,1.22391 -2.14185,0.30598 -2.14185,0.30598l-1.18961,-0.89294c-0.84702,-0.56468 -2.46682,-1.40264 -3.57299,-2.223c0.04489,0.44512 0.06231,0.91166 0.13928,1.26697c0.47927,2.2126 1.38437,4.42897 2.09698,6.5668c0,0 0.48379,1.45138 -0.96759,1.93518c-1.45138,0.48379 -1.93518,-0.96759 -1.93518,-0.96759c-0.91251,-2.73754 -2.69004,-6.29154 -2.52249,-9.24871c0.06751,-1.19146 -0.26105,-2.76859 0.66834,-3.51716c0.80716,-0.65011 2.08034,0.19231 3.06742,0.50826c1.48108,0.47407 3.22328,2.07581 4.54959,3.01364c2.03623,-2.9927 4.30913,-5.85847 7.09015,-8.17587l0.82683,-1.10243c0.27839,-0.37968 0.7277,-0.6262 1.2346,-0.6262c0.79412,0 1.44692,0.60505 1.52257,1.3793l0.30394,2.73546l-0.01202,0.00133c0.00646,0.02764 0.01281,0.0553 0.01904,0.08301c0.93648,4.16365 -0.61821,8.76108 -0.60961,12.9357v0.30598c0,0 0,1.52989 -1.52989,1.52989z"/><path d="M416.64331,198.75843c1.08179,-1.08179 2.16359,0 2.16359,0l0.4481,0.46984c1.02414,1.38746 2.11575,3.17031 2.42022,4.91233c0.13062,0.74735 0.1068,1.52222 0.02016,2.27594c-0.46369,4.03349 -3.37304,3.85881 -6.57333,4.1255c-2.36625,0.19719 -4.64338,0.66057 -7.01224,-0.05598c-3.00719,-0.90964 -4.81381,-2.85574 -4.7657,-6.05615c0.01061,-0.70611 -0.16574,-1.46801 0.11646,-2.11535c0.30893,-0.70868 1.03703,-1.14683 1.55555,-1.72025c0,0 1.0818,-1.08179 2.16359,0c1.08179,1.08179 0,2.1636 0,2.1636c-1.40374,1.14464 -1.16397,3.38904 0.58567,4.31602c2.26665,1.2009 4.67085,0.62191 7.05516,0.42322c0.36835,-0.0307 3.2954,0.35154 3.75211,-0.51716c0.93565,-1.7797 -0.74748,-4.58623 -1.76548,-5.91583l-0.16386,-0.14211c0,0 -1.08179,-1.0818 0,-2.1636z"/><path d="M381.92562,178.72771c1.52989,0 1.52989,1.52989 1.52989,1.52989c0,3.05979 0,7.64946 0,10.70925c0,0 0,1.52989 -1.52989,1.52989c-1.52989,0 -1.52989,-1.52989 -1.52989,-1.52989c0,-3.05979 0,-6.11957 0,-9.17936v-1.52989c0,0 0,-1.52989 1.52989,-1.52989z"/><path d="M394.22983,177.85546c1.48421,0.37105 1.11316,1.85527 1.11316,1.85527l-0.2603,0.85286c0,3.39398 -0.30598,6.71053 -0.30598,10.09729c0,0 0,1.52989 -1.52989,1.52989c-1.52989,0 -1.52989,-1.52989 -1.52989,-1.52989c0,-3.38965 0.30598,-6.70324 0.30598,-10.09729l0.35166,-1.59497c0,0 0.37105,-1.48422 1.85526,-1.11316z"/><path d="M387.76119,203.20238c0.09588,-0.44527 0.39195,-0.98672 1.24694,-1.11993c1.51166,-0.23552 1.74717,1.27613 1.74717,1.27613l-0.48485,1.71291c-1.32746,1.09196 -2.33601,2.15756 -4.21415,2.42356c-0.7737,0.10958 -1.56176,-0.19905 -2.29914,-0.45766c-0.31388,-0.11008 -0.44887,-0.65295 -0.78008,-0.62229c-0.44501,0.0412 -0.63958,0.7185 -1.07999,0.79449c-0.84818,0.14634 -1.82137,0.24868 -2.57695,-0.16353c-3.20005,-1.74582 -2.56566,-4.15706 -1.52562,-6.80015c0,0 0.57578,-1.41741 1.99319,-0.84162c1.41741,0.57578 0.84162,1.99319 0.84162,1.99319c-0.13262,0.31316 -1.58415,3.68491 0.52228,2.84453c0.60863,-0.24281 1.09975,-0.87322 1.75491,-0.88588c1.01253,-0.01956 1.83829,1.28149 2.83378,1.09549c0.68468,-0.12793 1.42084,-0.72541 2.02088,-1.24926z"/></g><g stroke="none" stroke-width="0.5"><path d="M80.76003,190.6419c0,2.00832 -2.00832,2.00832 -2.00832,2.00832l-0.30774,-0.00219c-3.49624,0.16283 -6.35782,0.54896 -9.71009,1.62481c-2.47266,0.69462 -7.85369,2.82781 -10.16713,0.23655c-1.02694,-1.15026 0.5916,-3.04707 1.17636,-4.47386c1.11404,-2.71819 4.04225,-5.47855 5.73073,-7.79738c2.17396,-2.98557 4.13161,-6.03925 6.42261,-8.94836c1.46443,-1.85955 2.99598,-3.66601 4.44272,-5.53935c0.47788,-0.6188 0.86053,-1.3075 1.33983,-1.9252c0.2225,-0.28674 1.10302,-0.66319 0.75947,-0.78024c-0.39135,-0.13334 -0.61981,0.66341 -1.03257,0.68719c-1.33611,0.07696 -2.65859,-0.33088 -3.99525,-0.39761c-3.91498,-0.19544 -7.83976,0.00256 -11.73068,0.39414c0,0 -1.99835,0.19984 -2.19819,-1.79853c-0.19984,-1.99835 1.79853,-2.19819 1.79853,-2.19819c5.39861,-0.53659 10.93246,-0.76104 16.32791,-0.01137c1.29712,0.18024 3.12281,-0.38265 3.86675,0.69509c1.85655,2.68955 -0.5271,5.83919 -1.91735,7.73785c-3.55072,4.84916 -7.28429,9.5683 -10.82457,14.43215c-1.29135,1.77414 -2.73657,3.43349 -4.01388,5.21778c-0.41021,0.57303 -0.69745,1.24532 -1.11588,1.80776c1.45425,-0.54023 3.2712,-0.98017 3.9706,-1.18392c3.66471,-1.15373 6.86023,-1.61169 10.68223,-1.79157l0.4956,-0.0022c0,0 2.00832,0 2.00832,2.00832z"/><path d="M102.44992,184.21527c0,1.77403 -1.56709,1.98099 -1.93271,2.00514c-3.31581,1.63409 -6.76799,3.07185 -10.24779,4.30546c-0.97856,0.34691 -2.01029,0.64163 -2.93095,1.11782c-0.25064,0.50288 -0.75272,1.00653 -1.75846,1.00653c-0.04573,0 -0.09041,-0.00104 -0.13408,-0.00307c-0.55475,0.10544 -1.26571,0.01111 -1.87424,-0.80026c-0.81145,-1.08193 -0.34789,-1.98172 0.04146,-2.45404c0.22071,-3.58202 1.25732,-7.02715 1.57497,-10.59711c0.19282,-2.16705 0.58719,-4.26758 0.80333,-6.42664c0.12254,-1.22408 -0.19915,-3.03079 0.02646,-4.19855c0.42397,-2.19442 1.18118,-3.34514 1.16876,-5.64519l0.38022,-0.31685c0.14982,-0.89726 0.99649,-1.40526 0.99649,-1.40526c5.09397,-3.03864 10.65999,-4.00131 16.18273,-5.84223l2.12993,-0.42994c0,0 1.96932,-0.39386 2.36319,1.57546c0.39386,1.96932 -1.57546,2.36319 -1.57546,2.36319l-1.88672,0.37338c-4.97469,1.65822 -10.06101,2.48965 -14.66719,5.12238c-0.21753,1.73162 -0.76763,3.14622 -1.14778,4.96465c-0.26158,1.25123 0.15355,2.56281 0.02646,3.83475c-0.034,0.34031 -0.0722,0.67891 -0.11323,1.01635c2.49511,-1.09322 5.12974,-1.89418 7.70246,-2.82837c0.57531,-0.79586 1.65884,-0.79587 1.65884,-0.79587l1.5492,3.87301c-3.80913,1.52193 -8.00805,2.46455 -11.53837,4.54332c-0.02222,0.20549 -0.04307,0.41151 -0.06223,0.61819c-0.23826,2.57022 -0.87826,5.08316 -1.27195,7.62928c3.63494,-1.62047 7.73771,-2.655 11.22852,-4.40184l1.29982,-0.21203c0,0 2.00832,0 2.00832,2.00832z"/><path d="M108.07323,188.23191c0,0.58496 -0.17039,0.99955 -0.41189,1.29338c-0.00545,0.11194 -0.01371,0.22369 -0.02601,0.33517c-0.02404,0.21781 -0.41109,0.53026 -0.21218,0.62223c0.20221,0.09349 0.21257,-0.41497 0.39997,-0.5354c1.12134,-0.72063 2.31841,-1.37716 3.24833,-2.33214c5.70035,-5.63262 13.08686,-9.33895 15.55182,-17.59466c0.46178,-1.54659 0.96125,-3.29396 0.44142,-4.82202c-0.96033,-2.82294 -5.58922,-5.22461 -8.48841,-4.33348c-0.76934,0.23648 -1.45275,0.68232 -2.14961,1.09538c-0.73644,4.07474 -2.33032,7.76975 -3.6319,11.62935c-0.9649,2.86125 -0.93416,6.06703 -2.0465,8.94363c-0.78693,2.03507 -1.64577,3.17185 -2.80634,4.8979c0.08245,0.22312 0.1313,0.48748 0.1313,0.80067zM117.65343,156.95579c4.22386,-1.14444 8.77866,1.14916 11.26795,4.31499c0.66728,0.84863 1.59566,1.57283 1.93353,2.59814c0.41687,1.26505 -0.01055,6.01852 -0.3619,7.22792c-0.83297,2.86716 -2.87446,6.98504 -4.89423,9.27693c-3.36035,3.81309 -8.14921,6.49073 -11.68713,10.08157c-1.68052,1.64724 -5.62627,5.15548 -8.40165,3.5591c-1.11272,-0.64004 -1.42672,-2.17211 -1.81884,-3.39441c-0.24319,-0.75807 -0.02416,-1.59208 -0.03623,-2.38811l0.66006,-0.55005c-0.68412,-1.0261 0.07889,-2.17062 0.07889,-2.17062c1.01706,-1.52096 1.95608,-2.72005 2.61097,-4.43402c1.07269,-2.80744 1.04394,-5.92163 1.97015,-8.72962c1.24335,-3.7695 2.88841,-7.35829 3.54386,-11.35738l0.36213,-0.84692c0.08431,-0.45946 0.35036,-0.80763 0.60229,-1.04449c0.21067,-0.22406 0.50938,-0.4593 0.89614,-0.56791c1.07672,-0.56418 2.10488,-1.25833 3.27401,-1.5751z"/><path d="M151.85469,157.30373c1.60666,1.20499 0.40166,2.81165 0.40166,2.81165l-1.39156,1.82177c-2.11864,1.61331 -4.29717,3.12862 -6.51434,4.58557c-1.60256,8.26029 -2.70654,16.55753 -5.02465,24.67092c0,0 -0.55173,1.93105 -2.48279,1.37932c-1.93105,-0.55173 -1.37932,-2.48278 -1.37932,-2.48278c1.93905,-6.78667 3.0151,-13.70885 4.25736,-20.62708c-1.75872,1.08572 -3.53197,2.15261 -5.30969,3.21937c0,0 -1.72212,1.03327 -2.7554,-0.68886c-1.03327,-1.72212 0.68886,-2.7554 0.68886,-2.7554c2.95967,-1.77561 5.89772,-3.55758 8.78333,-5.41914l0.4698,-0.70548c0,0 0.67858,-0.67858 1.56666,-0.62852c1.64164,-1.09282 3.26357,-2.21758 4.85997,-3.38813l1.01844,-1.39156c0,0 1.20499,-1.60666 2.81165,-0.40166z"/><path d="M155.37485,192.4382c-1.7963,-0.89815 -0.89815,-2.69445 -0.89815,-2.69445l0.33328,-0.65106c1.98526,-4.95723 3.60701,-10.07192 5.10769,-15.22746c-1.57877,0.15119 -3.34688,0.47865 -4.45389,0.94664c-0.77308,0.32683 -1.20167,1.21885 -1.95749,1.58383c-0.04129,0.01994 -0.08296,0.0388 -0.12497,0.05666c-1.38114,5.08737 -2.84505,10.14338 -5.39434,14.76321c0,0 -0.97532,1.75559 -2.73092,0.78026c-1.75559,-0.97533 -0.78027,-2.73092 -0.78027,-2.73092c2.22154,-3.96886 3.60887,-8.31582 4.83111,-12.7326c-0.2808,-0.24135 -0.51586,-0.60812 -0.62652,-1.16147c-0.39386,-1.96932 1.57546,-2.36319 1.57546,-2.36319c0.00055,-0.00009 0.0011,-0.00018 0.00165,-0.00027c0.98004,-3.67559 1.96865,-7.34294 3.3475,-10.82622l0.87172,-1.75893c0,0 0.89815,-1.7963 2.69445,-0.89815c1.7963,0.89815 0.89815,2.69445 0.89815,2.69445l-0.73494,1.45439c-0.93209,2.30181 -1.69098,4.67401 -2.38393,7.07332c1.85762,-0.559 4.23176,-0.87899 6.13392,-0.96702c1.22815,-4.3671 2.41552,-8.7414 3.70831,-13.05257c0,0 0.5771,-1.92362 2.50072,-1.34653c1.92363,0.57709 1.34653,2.50072 1.34653,2.50072c-3.26447,10.87673 -5.87715,22.13315 -10.10056,32.70363l-0.47005,0.9556c0,0 -0.89815,1.7963 -2.69445,0.89815z"/><path d="M182.27815,183.58018c0.63509,1.90526 -1.27018,2.54035 -1.27018,2.54035l-2.21444,0.73815c-3.60253,1.19825 -7.26066,1.9724 -10.80761,3.28361c-0.2253,0.47627 -0.45196,0.943 -0.67833,1.39777c0,0 -0.89815,1.7963 -2.69445,0.89815c-1.7963,-0.89815 -0.89815,-2.69445 -0.89815,-2.69445c0.19293,-0.38396 0.37923,-0.77055 0.55941,-1.15954c-0.01544,-0.62011 0.28555,-1.0645 0.60112,-1.35835c4.17352,-9.87015 4.8888,-21.10299 10.28369,-30.48045c-0.10796,-0.65964 0.09111,-1.13644 0.37316,-1.47241c0.23923,-0.35414 0.62863,-0.66925 1.26245,-0.75684c3.86819,-1.09642 7.46626,-1.86405 11.46901,-2.42902l0.14237,0.03819v-0.04324h2.81165c1.10917,0 2.00832,0.89916 2.00832,2.00832c0,0.60675 -0.26906,1.15065 -0.69438,1.5189l-3.20477,2.80417c0,0 -1.51142,1.32249 -2.83391,-0.18893c-0.55655,-0.63607 -0.61121,-1.23868 -0.48783,-1.72333c-2.40343,0.4241 -4.69451,0.94309 -7.08577,1.59317l-0.0378,0.24261c-2.64955,4.38662 -4.03982,9.40359 -5.25441,14.40946c1.90926,-0.92095 3.76014,-1.93364 5.70644,-2.90622l2.74127,-1.75916c0.31789,-0.21109 0.69936,-0.33407 1.10955,-0.33407c1.10917,0 2.00832,0.89916 2.00832,2.00832c0,0.66541 -0.32361,1.25523 -0.82203,1.62069l-1.58796,1.19097c0,0 -0.35453,0.2659 -0.85543,0.38135l-0.49228,0.31591l-0.07783,-0.12129l-0.01401,0.17681c-3.01141,1.50764 -5.81323,3.08564 -8.89777,4.3466c-0.18693,0.75742 -0.37814,1.50959 -0.57755,2.25418c-0.46044,1.71923 -1.07189,3.52398 -1.76504,5.31056c2.46535,-0.72965 4.95458,-1.35917 7.42036,-2.18297l2.21445,-0.73815c0,0 1.90526,-0.6351 2.54035,1.27018z"/><path d="M199.25113,191.44523c-2.00832,0 -2.00832,-2.00832 -2.00832,-2.00832l0.14364,-1.14753c1.35191,-3.37574 2.35959,-6.6735 3.40655,-10.09908c-2.71758,0 -6.21432,0 -8.74559,0c-0.52107,3.94549 -1.0212,7.90172 -2.59862,11.63607c0,0 -0.79111,1.84595 -2.63706,1.05482c-1.84595,-0.79112 -1.05483,-2.63706 -1.05483,-2.63706c2.86712,-6.577 2.13179,-13.98879 4.35438,-20.71651c1.52035,-4.60207 3.57074,-9.29533 6.26383,-13.34623l0.16743,-0.72607c0,0 0.63508,-1.90526 2.54034,-1.27017c1.90526,0.63509 1.27018,2.54035 1.27018,2.54035l-0.6359,1.68392c-2.50846,3.7513 -4.35387,8.10844 -5.78612,12.36032c-0.5948,1.76578 -0.99099,3.57501 -1.30083,5.40391c2.60864,0 5.21727,0 7.82592,0h1.20499c0,0 0.27742,0 0.62605,0.10311c0.51539,-1.09212 1.06649,-2.17119 1.53515,-3.28165c0.61005,-1.4455 0.68894,-3.06313 1.12063,-4.57153c0.74115,-2.58975 1.856,-4.85525 2.38047,-7.50539c0,0 0.39387,-1.96932 2.36319,-1.57546c1.96932,0.39386 1.57546,2.36319 1.57546,2.36319c-0.55112,2.73027 -1.68106,5.09859 -2.4395,7.75787c-0.47813,1.67644 -0.62527,3.45658 -1.28936,5.06843c-0.82671,2.00656 -2.00324,3.87791 -2.63082,5.95538c-1.16465,3.85531 -2.28207,7.52802 -3.78658,11.29353l0.14364,-0.34421c0,0 0,2.00832 -2.00832,2.00832z"/><path d="M220.37111,159.01345c1.90526,0.63509 1.27018,2.54034 1.27018,2.54034l-0.3376,0.96377c-0.9446,4.60823 -3.31223,8.7949 -4.43853,13.34518c-1.01216,4.0892 -2.66571,7.899 -4.08218,11.86095c-0.66955,1.87279 -1.16068,3.84426 -2.16978,5.55814c0,0 -1.03327,1.72213 -2.7554,0.68886c-1.72212,-1.03327 -0.68886,-2.7554 -0.68886,-2.7554c0.91157,-1.48312 1.26191,-3.2455 1.84687,-4.88514c1.36391,-3.82302 2.95865,-7.50274 3.95112,-11.4356c1.13135,-4.48318 3.51712,-8.62138 4.39809,-13.16469l0.46573,-1.44622c0,0 0.63508,-1.90526 2.54034,-1.27018z"/><path d="M235.69956,156.26697c0.63509,1.90526 -1.27018,2.54035 -1.27018,2.54035l-2.20588,0.72265c-0.77048,0.43862 -1.45254,1.09601 -2.31143,1.31586c-0.96385,0.24672 -2.00842,-0.15288 -2.98452,0.03975c-1.86209,0.36748 -4.71405,2.15655 -6.2162,2.9937c0,0 -1.75559,0.97533 -2.73092,-0.78026c-0.97532,-1.75559 0.78027,-2.73092 0.78027,-2.73092c2.3776,-1.31703 4.72349,-2.85191 7.44041,-3.43293c0.86025,-0.18397 1.78391,0.24725 2.63878,0.03975c0.6563,-0.1593 1.13682,-0.72942 1.70522,-1.09413l2.6141,-0.884c0,0 1.90526,-0.6351 2.54034,1.27017z"/><path d="M223.13899,172.47217c0.89815,1.7963 -0.89815,2.69445 -0.89815,2.69445l-0.80333,0.40166c-1.29109,0.64035 -2.56072,1.35053 -3.7098,2.22035c0,0 -1.60666,1.20499 -2.81165,-0.40166c-1.20499,-1.60666 0.40166,-2.81165 0.40166,-2.81165c1.34902,-1.00398 2.82153,-1.84334 4.3235,-2.59962l0.80333,-0.40166c0,0 1.79629,-0.89815 2.69445,0.89815z"/><path d="M217.13949,186.81182c1.4201,1.42009 0,2.8402 0,2.8402l-1.87922,1.64957c-1.87015,0.7477 -3.71311,1.56237 -5.55352,2.38054c0,0 -1.83523,0.81566 -2.65088,-1.01957c-0.81565,-1.83523 1.01957,-2.65088 1.01957,-2.65088c1.88671,-0.83834 3.77631,-1.67236 5.69309,-2.43944l0.53077,-0.76042c0,0 1.4201,-1.42009 2.8402,0z"/><path d="M229.28117,196.05319c-0.96016,-0.48008 -1.15048,-1.21676 -1.11962,-1.79857c-0.25331,0.03778 -0.54476,0.02595 -0.87931,-0.0577c-1.94836,-0.48709 -1.46127,-2.43545 -1.46127,-2.43545c2.59121,-10.30628 5.37509,-20.9181 9.32196,-30.78531l0.21949,-0.93038c0.02608,-0.36335 0.16396,-0.68133 0.30378,-0.91731c0.12751,-0.23591 0.32318,-0.51056 0.61047,-0.71831c2.92301,-2.88051 5.89656,-5.24827 9.34798,-7.51636c0.80476,-0.52885 1.49568,-1.38399 2.44652,-1.53636c1.33113,-0.21331 3.18332,-0.56122 4.01315,0.50121c2.1369,2.73592 -0.09707,7.82988 -1.14954,10.56878c-1.69051,4.3993 -3.07911,8.90356 -4.83252,13.28709c-0.62471,1.56178 -0.89901,3.28502 -1.76296,4.72828c-0.91834,1.53413 -2.80241,3.21917 -3.9461,4.69622c-1.51781,4.52253 -5.39232,7.74729 -8.20556,11.51953l-0.21203,0.49649c0,0 -0.89815,1.7963 -2.69445,0.89815zM236.83534,181.27487c1.16795,-1.59392 3.10328,-3.30907 4.0872,-4.94374c1.40416,-2.33287 2.10191,-5.88669 3.03361,-8.46522c1.71128,-4.73608 3.12017,-9.67305 4.96765,-14.36687c-0.32776,0.26818 -0.70545,0.48205 -1.05346,0.72499c-1.07887,0.75317 -2.20228,1.44222 -3.2679,2.21402c-1.93216,1.39939 -3.69282,3.03085 -5.38747,4.71286l-0.34265,1.31702c-3.61525,9.03812 -6.26071,18.73393 -8.64267,28.21772c2.49881,-2.9597 5.39451,-5.7516 6.60571,-9.41076z"/><path d="M259.23999,180.84651c0.25343,-0.05935 0.51195,-0.09257 0.42323,-0.25843c-0.14896,-0.27854 -0.60551,0.18016 -0.90826,0.27023zM258.6542,181.39946c-0.31304,-0.07633 -0.64409,-0.25303 -0.97512,-0.58407c-1.42009,-1.42009 0,-2.8402 0,-2.8402l2.56764,-0.84624c1.03613,0.62563 2.63488,0.76299 3.10839,1.87689c0.47666,1.1213 -0.42081,2.40808 -0.79382,3.56799c-1.58761,4.93681 -5.30499,7.65367 -9.23457,10.57979c-2.23608,1.11804 -6.54331,5.21199 -8.91746,1.11241c-0.41845,-0.72255 2.39027,-6.47592 2.6992,-7.72322c1.64274,-6.63259 5.02519,-12.51142 7.72528,-18.76102c2.16313,-5.00676 3.94194,-9.39349 7.01272,-14.00207c0,0 1.11402,-1.67103 2.78505,-0.55701c1.67103,1.11402 0.55701,2.78505 0.55701,2.78505c-5.71189,8.56324 -8.55368,18.40086 -13.11859,27.4765c-1.04397,2.07553 -1.13217,4.45148 -1.92992,6.64343c-0.01423,0.03909 -0.0286,0.08395 -0.04338,0.13365c0.3736,-0.17342 0.7507,-0.34064 1.1184,-0.52449c2.51823,-1.90405 4.85866,-3.39557 6.57347,-6.16933c0.40854,-0.66083 0.53764,-1.46604 0.86569,-2.16807z"/><path d="M280.20085,187.21348c1.42009,1.42009 0,2.8402 0,2.8402l-0.92362,0.77786c-1.85112,0.92243 -3.82176,1.58495 -5.70171,2.44709c-2.83484,1.30007 -5.17135,3.18314 -8.06192,4.43084c0,0 -1.57872,0.6766 -2.4419,-0.68162c-0.11074,-0.03033 -0.22582,-0.0705 -0.34534,-0.12171c-1.84595,-0.79112 -1.05482,-2.63706 -1.05482,-2.63706c2.83007,-6.60261 4.76118,-13.4666 7.3724,-20.18138c1.29417,-3.32799 3.0886,-6.85763 3.75083,-10.34955l0.35781,-0.81414c0.08839,-0.48446 0.37487,-0.83654 0.65314,-1.07342c0.23276,-0.23138 0.55868,-0.46166 0.97772,-0.54084c1.18501,-0.56313 2.12275,-1.59565 3.17992,-2.38875c0.8395,-0.62979 1.93246,-0.88021 2.74058,-1.54978c2.02103,-1.67453 3.54609,-3.95824 5.65882,-5.6524l0.23615,-0.25353c0,0 1.4201,-1.42009 2.8402,0c1.42009,1.42009 0,2.8402 0,2.8402l-0.56717,0.5498c-4.17541,3.33179 -7.37413,7.68891 -12.20997,10.00169c-0.81401,3.64344 -2.52004,7.2037 -3.8757,10.68956c-0.41597,1.06963 -0.81486,2.14275 -1.20293,3.21786c0.43826,-0.23071 0.87971,-0.45492 1.32157,-0.67584l1.4575,-1.10328c0,0 1.60666,-1.20499 2.81165,0.40166c1.20499,1.60666 -0.40166,2.81165 -0.40166,2.81165l-1.75582,1.30672c-1.60998,0.80499 -3.23562,1.62354 -4.67081,2.70993c0,0 -0.32381,0.24286 -0.78971,0.36515c-0.92267,2.6896 -1.84852,5.37411 -2.87541,8.02947c1.73465,-1.01011 3.37684,-2.12612 5.25537,-2.99807c1.82356,-0.84644 3.74803,-1.47115 5.54489,-2.37287l-0.12029,-0.02547c0,0 1.4201,-1.42009 2.8402,0z"/><path d="M329.39051,154.49207c2.00832,0 2.00832,2.00832 2.00832,2.00832v0.40166c-0.0282,6.36623 -2.42409,12.15519 -4.08616,18.19705c-2.06707,7.5141 -4.98582,14.17283 -8.56088,21.10882c-0.77662,1.27077 -1.38588,2.66039 -2.32984,3.81231c-2.21932,2.70827 -6.27699,3.7915 -8.77476,0.58855c-0.70831,-0.90828 -0.59359,-2.23254 -0.74307,-3.37461c-0.32359,-2.47233 0.20311,-5.97629 0.87108,-8.33953c3.25177,-11.50446 8.28911,-22.57785 14.69932,-32.66915c0,0 1.07822,-1.69435 2.77256,-0.61612c1.69434,1.07822 0.61613,2.77256 0.61613,2.77256c-2.75381,4.31921 -5.12642,8.67875 -7.06887,13.34693c-1.65743,3.98322 -4.08026,7.55258 -5.13045,11.77531c-0.9918,3.98795 -2.38827,7.5709 -2.75503,11.6984c-0.11715,1.31842 -0.61923,4.33828 1.43112,2.92683c0.37315,-0.25688 0.82765,-0.43665 1.09921,-0.79926c0.71251,-0.95135 1.20217,-2.05079 1.80326,-3.07619c3.42185,-6.64707 6.20825,-13.00976 8.19259,-20.20245c1.56108,-5.65851 3.97939,-11.17641 3.94714,-17.14945v-0.40166c0,0 0,-2.00832 2.00832,-2.00832z"/><path d="M340.24326,179.43429c1.96932,-0.39386 2.36319,1.57546 2.36319,1.57546l0.4399,2.34647c-0.94807,7.00049 -3.62185,12.96089 -7.25288,18.96491c-1.30252,1.31554 -2.09026,3.279 -3.75218,4.09461c-6.41298,3.14725 -6.49579,-4.59249 -5.83816,-8.4639c0.01165,-0.06857 1.77846,-5.47584 1.78521,-5.4982c0.76747,-2.5469 1.22184,-5.17928 1.93512,-7.7419c0.72078,-2.58953 2.01774,-4.99207 2.7783,-7.5702c2.09453,-7.10002 4.08057,-14.2226 6.43178,-21.27622c0,0 0.63508,-1.90526 2.54034,-1.27017c1.90526,0.63509 1.27018,2.54034 1.27018,2.54034c-2.33661,7.00984 -4.30278,14.09037 -6.39029,21.14424c-1.14471,3.86806 -2.61579,7.44204 -3.60232,11.38108c-0.97078,3.87615 -2.37468,7.27766 -2.76444,11.18836c-0.08088,0.81152 -0.87001,1.75988 -0.38568,2.41602c0.06315,0.08555 0.09178,-0.19278 0.15174,-0.28059c0.37577,-0.5503 0.72187,-1.12517 1.15431,-1.63215c0.46247,-0.54217 1.01342,-1.00215 1.52014,-1.50321c3.07101,-5.16492 5.48465,-10.38634 6.40372,-16.38158l-0.36343,-1.67019c0,0 -0.39386,-1.96932 1.57546,-2.36319z"/><path d="M299.95772,200.44618c-2.00832,0 -2.00832,-2.00832 -2.00832,-2.00832l0.00811,-2.18869c0.69539,-3.87936 1.73278,-7.67888 2.81065,-11.46838l-1.32591,-0.26765c-2.87134,-0.95859 -5.70986,-1.45065 -8.72182,-1.75017c0,0 -0.02869,-0.00287 -0.07885,-0.01136c-0.84663,4.99252 -1.43764,10.01133 -3.26933,14.80053c0,0 -0.72095,1.87446 -2.59541,1.15352c-1.87446,-0.72095 -1.15352,-2.59541 -1.15352,-2.59541c2.51853,-6.50754 2.59287,-13.55721 4.3515,-20.27857c1.7548,-6.70671 4.8001,-12.65677 8.35135,-18.54206l1.51763,-1.74657c0,0 1.32249,-1.51142 2.83391,-0.18893c1.51142,1.32249 0.18893,2.83391 0.18893,2.83391l-1.29402,1.46676c-3.26308,5.4771 -6.09585,10.97791 -7.71524,17.20611c-0.16707,0.64256 -0.31977,1.28729 -0.4614,1.93361c3.11741,0.32536 6.09501,0.84399 9.07721,1.83654l1.39892,0.27685c0.47379,-1.67783 0.93538,-3.35835 1.35862,-5.04762c1.55869,-6.22112 2.0835,-12.67874 4.9723,-18.48705c0,0 0.89815,-1.79629 2.69445,-0.89815c1.7963,0.89815 0.89815,2.69445 0.89815,2.69445c-2.7643,5.49555 -3.19411,11.75644 -4.66765,17.66278c-1.64797,6.60551 -3.9293,13.07363 -5.17006,19.77759l0.00812,1.82797c0,0 0,2.00832 -2.00832,2.00832z"/></g></g></g></svg>