<svg version="1.1" xmlns="http://www.w3.org/2000/svg" xmlns:xlink="http://www.w3.org/1999/xlink" width="185.81987" height="186.59421" viewBox="0,0,185.81987,186.59421"><g transform="translate(-146.43999,-86.7029)"><g data-paper-data="{&quot;isPaintingLayer&quot;:true}" fill-rule="nonzero" stroke-linecap="butt" stroke-linejoin="miter" stroke-miterlimit="10" stroke-dasharray="" stroke-dashoffset="0" style="mix-blend-mode: normal"><path d="M327.25986,193.1133c-8.3034,48.21765 -54.10222,81.43473 -102.29452,74.19245c-48.1923,-7.24228 -80.52862,-52.20142 -72.22521,-100.41905c8.3034,-48.21763 54.10223,-81.43473 102.29453,-74.19245c48.1923,7.24228 80.52862,52.20141 72.22521,100.41906z" fill="#ffd886" stroke="#847046" stroke-width="10"/><path d="M311.49476,190.74414c-6.80324,39.50624 -44.32766,66.72204 -83.81313,60.78823c-39.48547,-5.93382 -65.97964,-42.77026 -59.1764,-82.2765c6.80324,-39.50624 44.32766,-66.72204 83.81313,-60.78822c39.48547,5.93382 65.97964,42.77026 59.1764,82.27649z" fill="#ffd886" stroke="#847046" stroke-width="10"/><g fill="#847046" stroke="#ffd886" stroke-width="2.5"><path d="M219.4638,181.39461c-0.59738,4.52839 -5.04047,3.91954 -5.04047,3.91954l-2.99194,-0.41522c-4.10653,-0.36572 -8.01712,-1.04324 -11.99313,-1.35571c1.85918,3.56217 3.85635,6.60915 7.21958,9.68721c0,0 3.32285,3.0672 0.31344,6.45386c-3.00942,3.38665 -6.33226,0.31946 -6.33226,0.31946c-5.62987,-5.23428 -8.39464,-10.52566 -11.69939,-17.42164l-0.36559,-0.76288c-0.44057,-0.59015 -0.76544,-1.38639 -0.85712,-2.46006c-0.10458,-0.80726 -0.05747,-1.81458 0.48797,-2.75182c0.51939,-0.95251 1.34928,-1.50164 2.0861,-1.81641c0.98895,-0.47621 1.85207,-0.58322 2.59076,-0.47525c6.61407,-0.31829 12.72249,0.90661 19.32037,1.47876l3.41596,0.46291c0,0 4.4431,0.60886 3.8457,5.13726z"/><path d="M255.69666,161.55385c-4.02825,2.00531 -5.99578,-2.1003 -5.99578,-2.1003l-0.55519,-1.90312c-1.93104,-1.80005 -3.38857,-3.78071 -5.01216,-5.53896c-1.9016,4.95118 -4.1257,9.85066 -4.46786,15.05394c0,0 -0.38537,4.55224 -4.85184,4.15947c-4.46648,-0.39277 -4.0811,-4.94502 -4.0811,-4.94502c0.71068,-7.23379 3.69245,-13.35741 6.01549,-20.24616l0.11731,-1.233c-0.0761,-0.75627 0.06226,-1.63294 0.56214,-2.62864c0.01551,-0.03088 0.03111,-0.06139 0.04684,-0.09157c0.34201,-0.70851 0.90503,-1.49241 1.81783,-1.96855c0.90419,-0.49291 1.85705,-0.51751 2.62317,-0.39998c0.03329,0.00403 0.06679,0.00836 0.10051,0.01299c1.12052,0.15355 1.92044,0.55638 2.49024,1.07299c4.50862,2.80105 6.61297,6.28967 10.65826,9.97915l2.59284,4.66583c0,0 1.96753,4.10559 -2.0607,6.1109z"/><path d="M224.61393,184.14623c4.02823,-2.00531 5.99576,2.10029 5.99576,2.10029c1.44284,3.01075 4.85323,10.12711 6.29607,13.13789c0,0 1.96753,4.10559 -2.0607,6.1109c-4.02823,2.00531 -5.99578,-2.10027 -5.99578,-2.10027c-1.44284,-3.01075 -2.88572,-6.02155 -4.32856,-9.0323l-1.96751,-4.10559c0,0 -1.96753,-4.10559 2.06073,-6.1109z"/><path d="M236.69867,178.13032c4.02823,-2.00531 5.99576,2.10026 5.99576,2.10026c1.96753,4.10561 4.32856,9.03228 6.29607,13.13789c0,0 1.96753,4.10559 -2.06073,6.1109c-4.02825,2.00531 -5.99578,-2.10029 -5.99578,-2.10029c-1.96753,-4.10561 -3.93504,-8.21118 -5.90257,-12.31679l-0.3935,-0.82112c0,0 -1.96753,-4.10556 2.0607,-6.11088z"/><path d="M246.78062,207.71724c0.13566,-1.15975 0.75147,-2.43562 2.51019,-3.31113c4.02825,-2.00531 5.99576,2.10029 5.99576,2.10029l-1.7084,8.8878c-1.07782,0.22336 -2.30327,0.07193 -3.23348,0.67012c-1.62395,1.04429 -2.31025,3.50321 -4.14646,4.07557c-2.137,0.66611 -4.4456,-0.4697 -6.66838,-0.70454c0,0 -4.40311,-0.85913 -3.56019,-5.34677c0.84292,-4.48765 5.24603,-3.62853 5.24603,-3.62853c0.71261,0.3379 1.43031,1.36252 2.13781,1.01369c1.1789,-0.58126 1.21664,-2.52672 2.33602,-3.2195c0.34791,-0.21529 0.71343,-0.39006 1.09109,-0.53696z"/><path d="M289.13787,183.97878l3.18994,6.12211c-0.82139,4.17364 -0.97057,7.5718 -4.14771,10.95691c-1.25876,1.34115 -3.27328,1.64287 -4.81378,2.63254c-6.03587,3.87772 -10.95932,7.3396 -17.60167,1.24202c-1.46261,-1.34265 -1.86429,-3.534 -2.79644,-5.30099c0,0 -0.87951,-1.83524 -0.25855,-3.651c-1.20512,-1.85656 -2.29906,-3.79051 -3.26436,-5.78236l-2.036,-4.24846c-0.56342,-0.72165 -0.96818,-1.71086 -0.80472,-3.02331c0.01556,-0.8805 0.27361,-1.87523 1.09631,-2.73306c0.73409,-0.93764 1.67093,-1.32097 2.52638,-1.44502c1.25258,-0.32539 2.26234,-0.0414 3.0331,0.43608c2.75868,0.94105 5.57146,1.72518 8.40656,2.392c0.4496,-2.86637 0.97569,-5.72076 1.59606,-8.5525l-0.0073,-0.0885c-0.26376,-1.0115 -0.28017,-2.3148 0.65271,-3.55953c0.44617,-0.75413 1.1631,-1.4634 2.31506,-1.785c1.11135,-0.44599 2.10231,-0.31593 2.90286,0.01539c1.3044,0.37659 2.0441,1.24079 2.46358,2.10575c1.83746,2.53718 3.46582,5.24643 4.83529,8.07228l1.96751,4.10559c0,0 0.3754,0.78331 0.46253,1.83273c0.18256,0.15247 0.28259,0.25635 0.28259,0.25635zM278.65655,195.91433c1.00301,-0.61614 2.35494,-0.59962 3.24273,-1.37805c0.92579,-0.81176 1.47771,-5.18829 1.60582,-6.04918c-0.00758,-0.00145 -0.01514,-0.00294 -0.02269,-0.00442l-0.74324,1.89751c0,0 -1.25946,-1.30772 -1.37061,-3.07977c-0.69047,-0.68675 -1.03231,-1.40009 -1.03231,-1.40009l-0.18754,-0.3913c-0.05406,0.3871 -0.10675,0.77435 -0.15808,1.16178c-0.09856,1.53073 -0.72403,2.49848 -1.47945,3.11026c-0.71319,0.68591 -1.76429,1.18405 -3.30497,1.04312l-4.67487,-0.14013c-0.2084,-0.04784 -0.41669,-0.09623 -0.62487,-0.14517c0.58838,0.92377 1.21365,1.82264 1.87192,2.69242c0,0 1.84365,2.46284 0.50515,4.87995c1.58991,2.11636 3.0234,-0.13925 6.37298,-2.19691z"/></g></g></g></svg>